<svg width="28" height="23" viewBox="0 0 28 23" fill="none" xmlns="http://www.w3.org/2000/svg">
<path d="M25.9998 0.33333H0.666504V3H3.73317L8.1065 15C8.38159 15.7781 8.8906 16.452 9.56375 16.9294C10.2369 17.4068 11.0412 17.6643 11.8665 17.6667H23.3332V15H11.8665C11.5925 14.9999 11.3252 14.9153 11.1009 14.7579C10.8766 14.6004 10.7063 14.3777 10.6132 14.12L9.99984 12.3333H22.3732C22.9519 12.3325 23.5146 12.1434 23.9764 11.7947C24.4382 11.4459 24.774 10.9564 24.9332 10.4L27.3332 2.02666C27.3874 1.85158 27.4049 1.66719 27.3846 1.48503C27.3644 1.30287 27.3068 1.12684 27.2154 0.967932C27.1241 0.809027 27.001 0.670661 26.8538 0.561473C26.7066 0.452285 26.5384 0.374621 26.3598 0.33333C26.2406 0.313918 26.1191 0.313918 25.9998 0.33333ZM22.3332 9.66666H8.99984L6.57317 3H24.2265L22.3332 9.66666Z" fill="black"/>
<path d="M12 23C13.1046 23 14 22.1046 14 21C14 19.8954 13.1046 19 12 19C10.8954 19 10 19.8954 10 21C10 22.1046 10.8954 23 12 23Z" fill="black"/>
<path d="M20 23C21.1046 23 22 22.1046 22 21C22 19.8954 21.1046 19 20 19C18.8954 19 18 19.8954 18 21C18 22.1046 18.8954 23 20 23Z" fill="black"/>
</svg>
