<svg width="640" height="683" viewBox="0 0 640 683" fill="none" xmlns="http://www.w3.org/2000/svg">
<path d="M568.01 377.963L588.599 377.531L598.747 377.362C602.125 377.285 605.471 377.362 608.849 377.269L608.155 377.963L608.078 360.705L608.849 361.476L588.429 361.369C581.612 361.369 574.811 361.199 568.01 361.122L568.426 360.705C568.426 363.528 568.287 366.365 568.226 369.234L568.01 377.963ZM568.01 377.963L567.778 369.419C567.778 366.535 567.609 363.636 567.578 360.705V360.227H568.01C574.811 360.227 581.612 359.996 588.429 359.98L608.849 359.888H609.62V360.659L609.527 377.917V378.734H608.849C605.394 378.734 601.955 378.734 598.516 378.657L588.244 378.488L568.01 377.963Z" fill="#EBEBEB"/>
<path d="M590.789 399.725L611.378 399.293L621.526 399.123C624.904 399.046 628.266 399.123 631.628 399.031L630.934 399.725V382.467L631.705 383.238L611.285 383.13C604.469 383.13 597.667 382.96 590.866 382.883L591.282 382.467C591.282 385.289 591.143 388.127 591.082 390.995L590.789 399.725ZM590.789 399.725L590.573 391.18C590.496 388.296 590.388 385.397 590.357 382.467V382.05H590.789C597.59 381.973 604.392 381.819 611.208 381.803L631.628 381.711H632.399V382.482L632.307 399.74V400.434H631.628C628.189 400.434 624.734 400.434 621.295 400.357L611.023 400.187L590.789 399.725Z" fill="#EBEBEB"/>
<path d="M545.138 399.709H585.977V382.451H545.138V399.709Z" fill="#EBEBEB"/>
<path d="M8.05899 518.849L28.6637 518.418L38.8118 518.248C42.1739 518.248 45.5361 518.248 48.8982 518.155L48.2196 518.849L48.1271 501.591L48.8982 502.363L28.4786 502.255C21.6772 502.255 14.8758 502.085 8.05899 502.008L8.4754 501.591C8.4754 504.414 8.35202 507.252 8.27491 510.12L8.05899 518.849ZM8.05899 518.849L7.84307 510.305C7.76596 507.421 7.67342 504.522 7.64258 501.591V501.175H8.05899C14.8758 501.098 21.6772 500.944 28.4786 500.928L48.8982 500.836H49.6693V501.607V518.865V519.559H48.9753C45.5361 519.559 42.0814 519.559 38.6576 519.482L28.3552 519.281L8.05899 518.849Z" fill="#EBEBEB"/>
<path d="M30.8537 540.595H71.6929V523.337H30.8537V540.595Z" fill="#EBEBEB"/>
<path d="M113.874 196.531L134.479 196.099L144.627 195.93C147.989 195.852 151.351 195.93 154.713 195.852L154.035 196.531L153.942 179.273L154.713 180.044L134.294 179.952C127.492 179.952 120.675 179.782 113.874 179.69L114.29 179.273C114.29 182.095 114.167 184.949 114.09 187.817L113.874 196.531ZM113.874 196.531L113.658 188.002C113.658 185.118 113.488 182.203 113.458 179.273V178.857H113.874C120.675 178.78 127.492 178.61 134.294 178.61L154.713 178.502H155.484V179.273L155.407 196.531V197.225H154.729C151.289 197.225 147.835 197.225 144.411 197.133L134.139 196.963L113.874 196.531Z" fill="#EBEBEB"/>
<path d="M30.6378 47.363L71.4771 47.363V30.1051L30.6378 30.1051V47.363Z" fill="#EBEBEB"/>
<path d="M7.87398 69.1244L28.4632 68.7389L38.6113 68.5692C41.9889 68.5692 45.3356 68.5692 48.7132 68.5692L48.0192 69.2478V51.9898L48.7903 52.761L28.3553 52.5451C21.5385 52.5451 14.7371 52.3754 7.93566 52.2829L8.35208 51.8665C8.35208 54.6888 8.21328 57.5266 8.15159 60.4106L7.87398 69.1244ZM7.87398 69.1244L7.64263 60.5957C7.64263 57.7117 7.47298 54.7968 7.44214 51.8665V51.4501H7.87398C14.6754 51.4501 21.4768 51.2033 28.2936 51.1879L48.7132 51.0953H49.4843V51.8665L49.3918 69.1244V69.8184H48.7132C45.2585 69.8184 41.8193 69.8184 38.38 69.7259L28.1085 69.5563L7.87398 69.1244Z" fill="#EBEBEB"/>
<path d="M568.01 47.3631L588.599 46.9312L598.747 46.7616C602.125 46.7616 605.471 46.7616 608.849 46.7616L608.155 47.4402L608.078 30.1822L608.849 30.9534L588.429 30.8608C581.612 30.8608 574.811 30.6912 568.01 30.5986L568.426 30.1822C568.426 33.0046 568.287 35.8423 568.226 38.7264L568.01 47.3631ZM568.01 47.3631L567.778 38.8343C567.778 35.9503 567.609 33.0354 567.578 30.1051V29.6887H568.01C574.811 29.6887 581.612 29.4419 588.429 29.4265L608.849 29.334H609.62V30.1822L609.527 47.4402V48.1342H608.849C605.394 48.1342 601.955 48.1342 598.516 48.0417L588.198 47.7949L568.01 47.3631Z" fill="#EBEBEB"/>
<path d="M503.45 263.172H544.29V245.914H503.45V263.172Z" fill="#EBEBEB"/>
<path d="M68.8088 137.216C69.5748 136.747 70.4554 136.498 71.3536 136.498C72.2517 136.498 73.1323 136.747 73.8983 137.216L75.2092 137.971C75.6565 138.203 76.1037 138.434 76.5664 138.65C77.3807 139.023 78.0763 139.614 78.5769 140.356C79.0775 141.099 79.3638 141.965 79.4042 142.86L79.5893 149.122L100.009 148.489L99.8084 142.228C99.7878 141.328 100.016 140.44 100.468 139.662C100.919 138.884 101.577 138.245 102.369 137.817C103.259 137.35 104.124 136.835 104.96 136.275C105.693 135.757 106.555 135.453 107.451 135.396C108.346 135.339 109.24 135.531 110.034 135.951L115.539 138.897L125.194 120.898L119.688 117.937C118.899 117.512 118.243 116.876 117.793 116.1C117.344 115.324 117.119 114.438 117.143 113.542C117.176 112.513 117.145 111.482 117.051 110.457C116.952 109.552 117.11 108.637 117.509 107.819C117.907 107 118.529 106.311 119.303 105.83L124.623 102.669L113.828 85.3183L108.553 88.5724C107.79 89.0417 106.912 89.2902 106.016 89.2902C105.12 89.2902 104.242 89.0417 103.479 88.5724C103.063 88.3103 102.615 88.0635 102.183 87.8321C101.752 87.6008 101.289 87.354 100.826 87.1536C100.01 86.7791 99.3126 86.1863 98.8118 85.4406C98.3111 84.6948 98.0261 83.8252 97.9885 82.9277L97.7572 76.6199L77.3376 77.2522L77.538 83.4213C77.5657 84.3222 77.3405 85.2129 76.888 85.9924C76.4355 86.772 75.7739 87.4093 74.9779 87.8321C74.087 88.2991 73.2221 88.8139 72.3869 89.3744C71.655 89.8951 70.7923 90.2013 69.8959 90.2585C68.9996 90.3157 68.105 90.1217 67.3128 89.6983L61.8069 86.7526L52.1523 104.89L57.6582 107.851C58.4472 108.275 59.102 108.912 59.5489 109.688C59.9958 110.465 60.217 111.351 60.1875 112.246C60.1679 113.276 60.204 114.305 60.2955 115.331C60.3929 116.236 60.2333 117.15 59.835 117.968C59.4368 118.786 58.816 119.476 58.0438 119.958L52.723 123.258L63.5189 140.608L68.8088 137.216ZM73.9137 104.982C75.4724 102.062 77.8618 99.6704 80.78 98.1087C83.6981 96.547 87.0138 95.8858 90.3078 96.2086C93.6018 96.5314 96.726 97.8238 99.2854 99.9223C101.845 102.021 103.724 104.831 104.687 107.998C105.649 111.165 105.65 114.546 104.691 117.713C103.731 120.881 101.854 123.693 99.2962 125.794C96.7385 127.894 93.6153 129.189 90.3216 129.515C87.0279 129.84 83.7117 129.182 80.7922 127.623C76.8812 125.529 73.9604 121.969 72.6708 117.725C71.3812 113.48 71.8282 108.898 73.9137 104.982Z" fill="#EBEBEB"/>
<path d="M603.62 347.18C603.94 346.635 604.406 346.191 604.964 345.897C605.523 345.603 606.152 345.47 606.782 345.514H608.895C609.511 345.481 610.124 345.618 610.667 345.909C611.211 346.2 611.665 346.634 611.98 347.164L614.17 350.974L626.508 343.817L624.318 340.023C624.004 339.477 623.849 338.854 623.871 338.225C623.893 337.595 624.09 336.984 624.441 336.461C624.832 335.854 625.186 335.237 625.505 334.61C625.791 334.039 626.232 333.56 626.778 333.227C627.323 332.894 627.951 332.722 628.59 332.729H632.97V318.416H628.59C627.952 318.427 627.325 318.257 626.779 317.927C626.234 317.597 625.792 317.12 625.505 316.55C625.187 315.913 624.832 315.295 624.441 314.699C624.09 314.176 623.893 313.565 623.871 312.936C623.849 312.306 624.004 311.683 624.318 311.137L626.508 307.327L614.17 300.187L611.964 303.996C611.652 304.529 611.199 304.967 610.655 305.26C610.111 305.554 609.497 305.693 608.88 305.662C608.525 305.662 608.17 305.662 607.815 305.662C607.461 305.662 607.121 305.662 606.767 305.662C606.138 305.7 605.51 305.566 604.952 305.272C604.395 304.978 603.929 304.537 603.605 303.996L601.415 300.187L589.077 307.327L591.267 311.121C591.581 311.668 591.735 312.291 591.713 312.92C591.692 313.55 591.494 314.161 591.143 314.684C590.763 315.291 590.408 315.908 590.079 316.535C589.795 317.107 589.354 317.587 588.808 317.92C588.263 318.253 587.634 318.425 586.995 318.416H582.615V332.729H586.995C587.634 332.722 588.261 332.894 588.807 333.227C589.352 333.56 589.793 334.039 590.079 334.61C590.397 335.248 590.753 335.865 591.143 336.461C591.494 336.984 591.692 337.595 591.713 338.225C591.735 338.854 591.581 339.477 591.267 340.023L589.077 343.817L601.415 350.974L603.62 347.18ZM596.11 325.588C596.107 323.269 596.791 321.001 598.077 319.072C599.364 317.142 601.193 315.637 603.335 314.748C605.476 313.858 607.833 313.624 610.108 314.075C612.383 314.525 614.473 315.64 616.113 317.279C617.754 318.917 618.872 321.006 619.326 323.28C619.779 325.554 619.548 327.912 618.661 330.054C617.775 332.197 616.272 334.029 614.344 335.317C612.416 336.606 610.15 337.294 607.831 337.294C604.729 337.286 601.756 336.05 599.563 333.856C597.369 331.663 596.133 328.69 596.125 325.588H596.11Z" fill="#EBEBEB"/>
<path d="M10.4341 165.393C10.9796 165.711 11.4249 166.176 11.7193 166.735C12.0138 167.294 12.1456 167.924 12.0998 168.554C12.0998 168.894 12.0998 169.248 12.0998 169.603C12.0998 169.958 12.0998 170.312 12.0998 170.667C12.1325 171.283 11.996 171.896 11.7051 172.44C11.4142 172.984 10.98 173.437 10.4495 173.752L6.64014 175.942L13.7963 188.28L17.5594 186.198C18.1067 185.888 18.7293 185.735 19.3581 185.757C19.9869 185.778 20.5974 185.974 21.122 186.321C21.7235 186.707 22.3404 187.077 22.9727 187.401C23.5344 187.678 24.0079 188.106 24.3401 188.638C24.6724 189.169 24.8504 189.782 24.8543 190.408V194.788H39.1511V190.408C39.1518 189.783 39.3268 189.17 39.6564 188.639C39.9861 188.108 40.4573 187.679 41.0173 187.401C41.6549 187.078 42.2729 186.717 42.868 186.321C43.3926 185.974 44.0031 185.778 44.6319 185.757C45.2607 185.735 45.8832 185.888 46.4306 186.198L50.24 188.388L57.3807 176.05L53.5713 173.844C53.0415 173.528 52.607 173.074 52.3138 172.531C52.0206 171.988 51.8796 171.376 51.9056 170.76C51.9056 170.405 51.9056 170.066 51.9056 169.711C51.9056 169.356 51.9056 169.002 51.9056 168.662C51.8652 168.033 51.9994 167.405 52.2933 166.847C52.5872 166.289 53.0294 165.823 53.5713 165.501L57.3807 163.311L50.24 150.972L46.446 153.163C45.8998 153.476 45.2767 153.631 44.6471 153.609C44.0176 153.587 43.4066 153.39 42.8834 153.039C42.2871 152.659 41.6701 152.304 41.0327 151.975C40.4603 151.69 39.9801 151.25 39.6472 150.704C39.3143 150.158 39.1423 149.53 39.1511 148.89V144.51H24.8851V148.89C24.8921 149.529 24.7194 150.157 24.3867 150.703C24.054 151.248 23.5748 151.689 23.0036 151.975C22.3662 152.293 21.7482 152.648 21.1529 153.039C20.6266 153.39 20.0132 153.587 19.3813 153.608C18.7495 153.63 18.124 153.476 17.5748 153.163L13.7963 150.972L6.64014 163.311L10.4341 165.393ZM32.0258 157.882C34.3447 157.879 36.6124 158.564 38.542 159.85C40.4716 161.136 41.9763 162.965 42.8658 165.107C43.7553 167.248 43.9897 169.606 43.5391 171.88C43.0886 174.155 41.9735 176.245 40.3349 177.886C38.6962 179.527 36.6078 180.644 34.3336 181.098C32.0595 181.551 29.702 181.32 27.5593 180.434C25.4166 179.547 23.5851 178.044 22.2965 176.117C21.0079 174.189 20.32 171.922 20.32 169.603C20.3241 166.498 21.5582 163.522 23.7522 161.325C25.9461 159.128 28.9211 157.89 32.0258 157.882Z" fill="#EBEBEB"/>
<path d="M137.794 682.515C199.633 682.515 249.763 675.34 249.763 666.49C249.763 657.641 199.633 650.466 137.794 650.466C75.956 650.466 25.8259 657.641 25.8259 666.49C25.8259 675.34 75.956 682.515 137.794 682.515Z" fill="#EBEBEB"/>
<path d="M545.261 494.759C533.849 471.301 513.876 459.287 491.282 465.903C468.688 472.519 465.279 503.951 482.028 511.878C498.777 519.805 515.634 496.671 524.518 491.906C533.401 487.14 545.261 494.759 545.261 494.759Z" fill="#3A998E"/>
<path d="M556.319 557.221C556.319 554.398 556.15 551.561 556.042 548.738C555.841 543.094 555.656 537.449 555.456 531.773C555.07 521.456 553.913 511.308 549.672 501.792C545.894 493.16 539.579 485.883 531.566 480.925C528.596 479.126 525.395 477.74 522.05 476.807C519.024 473.711 515.159 471.567 510.93 470.638C505.72 469.58 500.364 469.444 495.107 470.237C494.906 470.237 494.922 470.561 495.107 470.53C500.125 469.894 505.219 470.256 510.098 471.594C512.181 472.179 514.201 472.969 516.128 473.954C517.341 474.605 518.506 475.342 519.613 476.159C515.071 475.22 510.379 475.267 505.856 476.298C504.228 476.68 502.634 477.195 501.091 477.84C499.855 477.573 498.591 477.464 497.328 477.516C495.683 477.578 494.05 477.81 492.454 478.211C489.197 479.129 486.083 480.494 483.201 482.267C483.031 482.359 483.201 482.606 483.355 482.513C486.195 480.965 489.237 479.818 492.392 479.105C493.916 478.763 495.462 478.537 497.019 478.426C497.882 478.38 498.747 478.38 499.61 478.426C493.193 481.389 488.035 486.532 485.051 492.939C484.974 493.109 485.236 493.263 485.313 493.078C487.087 489.372 489.671 486.111 492.875 483.538C496.078 480.964 499.819 479.144 503.821 478.211C504.314 478.087 504.823 478.025 505.363 477.917C505.193 478.642 505.224 479.46 505.132 480.185C504.977 481.326 504.792 482.467 504.561 483.593C504.089 485.921 503.476 488.218 502.726 490.472C501.964 492.745 501.052 494.966 499.996 497.119C498.99 499.408 497.711 501.568 496.186 503.55C496.169 503.565 496.155 503.585 496.146 503.606C496.137 503.628 496.133 503.651 496.135 503.675C496.136 503.698 496.143 503.721 496.155 503.741C496.166 503.762 496.182 503.779 496.201 503.792C496.221 503.806 496.243 503.814 496.266 503.818C496.289 503.821 496.313 503.819 496.335 503.812C496.357 503.805 496.378 503.793 496.395 503.777C496.412 503.761 496.425 503.742 496.433 503.72C497.775 501.607 499.348 499.648 500.582 497.458C501.781 495.358 502.812 493.166 503.666 490.903C504.533 488.62 505.204 486.268 505.671 483.871C505.934 482.606 506.119 481.326 506.273 480.046C506.419 479.279 506.466 478.496 506.412 477.717C509.057 477.319 511.742 477.268 514.401 477.563C513.414 483.161 512.334 488.991 509.203 493.849C509.095 494.019 509.373 494.173 509.465 493.988C510.932 491.411 512.221 488.737 513.321 485.984C514.359 483.313 515.013 480.509 515.264 477.655C519.911 478.278 524.397 479.78 528.481 482.082C536.168 486.559 542.307 493.273 546.079 501.329C550.05 510.012 552.267 519.394 552.603 528.936C553.343 540.919 553.497 552.995 554.7 564.948C554.777 565.734 556.011 565.996 556.242 565.102C556.506 562.483 556.532 559.845 556.319 557.221Z" fill="#263238"/>
<path d="M529.931 479.059C529.179 478.145 528.307 477.335 527.34 476.653C526.399 475.882 525.443 475.11 524.441 474.463C522.465 473.087 520.277 472.045 517.963 471.378C517.778 471.378 517.701 471.64 517.963 471.671C520.286 472.247 522.465 473.297 524.364 474.756C525.32 475.465 526.23 476.205 527.124 476.992C527.917 477.823 528.796 478.567 529.746 479.213C529.839 479.429 530.055 479.228 529.931 479.059Z" fill="#263238"/>
<path d="M493.503 487.557C491.615 489.756 489.864 492.068 488.259 494.481C486.706 496.914 485.404 499.497 484.373 502.193C484.373 502.27 484.465 502.316 484.512 502.193C487.141 497.084 490.239 492.231 493.765 487.695C493.842 487.618 493.626 487.418 493.503 487.557Z" fill="#263238"/>
<path d="M518.056 485.243C517.816 486.707 517.386 488.133 516.776 489.484C516.145 490.791 515.418 492.048 514.601 493.248C514.601 493.325 514.601 493.402 514.724 493.34C516.699 491.078 517.96 488.282 518.349 485.305C518.38 485.151 518.087 485.043 518.056 485.243Z" fill="#263238"/>
<path d="M554.731 495.345C554.731 495.345 570.894 475.018 602.079 482.22C631.736 489.068 645.416 543.448 615.465 549.941C585.515 556.434 590.789 506.141 579.854 497.597C571.85 491.32 560.329 492.677 554.731 495.345Z" fill="#3A998E"/>
<path d="M626.184 511.924C624.15 510.142 622.001 508.493 619.753 506.989C617.635 505.545 615.332 504.393 612.905 503.565C611.685 501.72 610.324 499.972 608.834 498.337C606.079 495.384 602.904 492.853 599.41 490.826H600.336C601.985 490.741 603.637 490.741 605.286 490.826C608.617 491.037 611.882 491.847 614.926 493.217C615.095 493.217 615.219 493.016 615.049 492.955C611.968 491.622 608.744 490.649 605.441 490.055C603.832 489.77 602.201 489.631 600.567 489.639C599.691 489.644 598.816 489.695 597.945 489.793H597.436C594.575 488.352 591.558 487.245 588.445 486.492L589.324 486.246C590.852 485.916 592.397 485.664 593.951 485.49C597.059 485.135 600.2 485.182 603.297 485.629C603.328 485.619 603.355 485.599 603.374 485.573C603.393 485.546 603.403 485.515 603.403 485.482C603.403 485.45 603.393 485.418 603.374 485.392C603.355 485.366 603.328 485.346 603.297 485.336C600.165 484.966 597.009 484.842 593.858 484.966C591.214 485.039 588.584 485.38 586.008 485.984C584.134 485.636 582.237 485.419 580.333 485.336C569.444 484.873 557.584 488.929 550.891 497.874C544.197 506.82 542.886 518.757 541.637 529.553C539.808 544.6 539.411 559.788 540.45 574.911C540.45 575.79 541.776 575.635 541.791 574.787C542.208 561.971 542.655 549.139 543.889 536.369C544.459 530.447 545.076 524.509 546.063 518.649C546.786 513.603 548.235 508.689 550.366 504.059C552.682 499.327 556.347 495.388 560.9 492.739C565.466 490.108 570.561 488.527 575.814 488.112C580.517 487.717 585.254 488.161 589.802 489.423C589.638 490.334 589.612 491.265 589.725 492.183C589.833 493.341 590.065 494.484 590.419 495.592C590.75 496.659 591.184 497.692 591.714 498.676C592.301 499.741 593.025 500.697 593.673 501.761C593.766 501.915 594.028 501.761 593.905 501.591C592.624 499.754 591.794 497.64 591.483 495.422C591.298 494.371 591.175 493.31 591.113 492.245C591.113 491.443 591.113 490.626 591.113 489.824C596.061 491.348 600.68 493.786 604.731 497.011C605.487 497.628 606.273 498.26 606.937 498.923C605.909 499.883 605.017 500.978 604.284 502.177C603.216 503.738 602.287 505.39 601.508 507.113C600.077 510.569 599.107 514.199 598.624 517.908C598.624 518.093 598.901 518.155 598.917 517.908C599.499 514.304 600.704 510.828 602.48 507.637C603.3 506.037 604.222 504.492 605.24 503.01C605.765 502.27 606.304 501.468 606.875 500.805C607.183 500.419 607.523 500.018 607.8 499.602C611.471 503.194 614.469 507.415 616.653 512.063C615.163 513.685 613.94 515.533 613.029 517.538C611.912 519.523 610.938 521.584 610.114 523.707C608.607 527.862 607.36 532.106 606.381 536.416C606.381 536.601 606.644 536.662 606.674 536.416C607.629 532.07 609.116 527.859 611.101 523.877C612.042 521.934 613.029 520.006 614.062 518.109C615.138 516.344 616.117 514.522 616.992 512.649C619.068 517.203 620.277 522.104 620.555 527.1C620.555 527.285 620.863 527.27 620.848 527.1C620.274 519.263 617.876 511.669 613.846 504.923C615.758 505.74 617.671 506.465 619.506 507.514C621.851 508.777 624.028 510.332 625.984 512.14C626.122 512.279 626.323 512.048 626.184 511.924Z" fill="#263238"/>
<path d="M603.297 513.066C602.371 516.15 601.184 519.142 600.336 522.319C599.495 525.281 599.044 528.34 598.994 531.419C598.994 531.511 599.133 531.511 599.148 531.419C599.994 525.192 601.494 519.071 603.621 513.158C603.627 513.137 603.629 513.115 603.626 513.093C603.624 513.071 603.617 513.05 603.606 513.03C603.595 513.011 603.581 512.994 603.563 512.98C603.546 512.966 603.526 512.956 603.505 512.95C603.484 512.944 603.462 512.942 603.44 512.945C603.418 512.947 603.396 512.954 603.377 512.965C603.358 512.976 603.341 512.99 603.327 513.007C603.313 513.025 603.303 513.044 603.297 513.066Z" fill="#263238"/>
<path d="M623.069 505.431C621.844 504.251 620.451 503.259 618.935 502.486C617.394 501.783 615.794 501.216 614.154 500.789C613.969 500.789 613.908 501.036 614.154 501.082C615.778 501.496 617.335 502.134 618.781 502.979C620.256 503.745 621.674 504.616 623.022 505.586C623.038 505.582 623.053 505.574 623.065 505.563C623.077 505.552 623.086 505.538 623.091 505.522C623.095 505.506 623.096 505.49 623.092 505.474C623.088 505.458 623.08 505.443 623.069 505.431Z" fill="#263238"/>
<path d="M570.092 468.186C570.092 468.186 573.068 431.696 600.197 419.867C622.853 409.996 635.823 435.443 619.814 451.036C606.859 463.651 586.085 457.96 570.092 468.186Z" fill="#3A998E"/>
<path d="M614.802 426.946C610.67 428.618 606.637 430.528 602.726 432.667C599.481 434.528 596.355 436.588 593.365 438.836C593.812 437.911 594.198 436.955 594.66 436.045C595.37 434.641 596.125 433.253 596.958 431.927C598.626 429.161 600.637 426.617 602.942 424.355C603.081 424.231 602.85 424.015 602.726 424.154C600.429 426.417 598.324 428.867 596.434 431.48C595.5 432.804 594.64 434.178 593.858 435.598C593.058 436.911 592.441 438.328 592.023 439.808L591.73 440.024C586.992 443.798 582.651 448.046 578.775 452.701C578.852 452.347 578.914 451.992 579.022 451.653C579.531 449.879 580.07 448.105 580.656 446.347C581.83 442.605 583.478 439.029 585.561 435.706C585.669 435.551 585.407 435.397 585.299 435.567C583.17 438.892 581.274 442.36 579.623 445.946C578.866 447.697 578.237 449.502 577.742 451.344C577.349 452.542 577.055 453.769 576.862 455.015C575.675 456.557 574.518 458.022 573.423 459.642C561.779 476.221 555.934 496.27 554.53 516.351C554.119 522.331 554.016 528.328 554.222 534.318C554.249 540.365 554.765 546.399 555.764 552.363C555.841 552.748 556.427 552.625 556.427 552.255C556.289 546.98 555.749 541.736 555.641 536.462C555.541 531.172 555.71 525.88 556.15 520.607C557.001 510.076 558.987 499.667 562.072 489.562C565.223 479.206 569.868 469.365 575.86 460.351C577.001 460.12 578.143 459.811 579.268 459.518C580.394 459.225 581.983 458.824 583.325 458.454C585.929 457.781 588.461 456.851 590.882 455.678C590.898 455.668 590.912 455.655 590.923 455.639C590.934 455.624 590.942 455.606 590.946 455.587C590.951 455.569 590.951 455.549 590.948 455.531C590.945 455.512 590.938 455.494 590.928 455.477C590.918 455.461 590.905 455.447 590.889 455.436C590.873 455.425 590.856 455.417 590.837 455.413C590.819 455.409 590.799 455.408 590.781 455.411C590.762 455.414 590.744 455.421 590.727 455.431C588.323 456.736 585.716 457.627 583.016 458.068C580.888 458.5 578.682 458.762 576.554 459.256C578.528 456.387 580.626 453.611 582.862 450.959C588.031 451.427 593.241 451.042 598.285 449.817C600.968 449.168 603.605 448.343 606.181 447.35C608.911 446.301 611.471 444.959 614.154 443.833C614.189 443.817 614.216 443.788 614.229 443.751C614.242 443.715 614.24 443.675 614.224 443.641C614.207 443.606 614.178 443.579 614.142 443.566C614.106 443.553 614.066 443.555 614.031 443.571C609.175 446.218 603.874 447.954 598.392 448.691C593.552 449.469 588.659 449.871 583.756 449.894C585.684 447.689 587.674 445.53 589.802 443.509C596.927 436.724 605.394 430.493 614.771 427.239C615.064 427.177 614.972 426.884 614.802 426.946Z" fill="#263238"/>
<path d="M592.717 427.069C591.49 428.605 590.376 430.229 589.386 431.927C588.375 433.716 587.573 435.615 586.995 437.587C586.995 437.587 586.995 437.695 587.103 437.587C588.013 435.798 588.769 433.932 589.694 432.158C590.59 430.4 591.676 428.745 592.933 427.223C593.056 427.115 592.825 426.915 592.717 427.069Z" fill="#263238"/>
<path d="M617.948 439.206C616.185 440.188 614.318 440.969 612.381 441.535C610.525 442.155 608.635 442.67 606.721 443.078C606.628 443.078 606.644 443.247 606.721 443.232C608.72 443.022 610.691 442.593 612.597 441.952C614.473 441.237 616.307 440.413 618.087 439.484C618.272 439.376 618.118 439.114 617.948 439.206Z" fill="#263238"/>
<path d="M548.994 461.646C548.824 463.189 544.891 448.383 521.942 435.227C501.122 423.275 476.245 392.183 496.68 372.534C513.167 356.68 556.613 391.242 548.994 461.646Z" fill="#3A998E"/>
<path d="M564.787 546.641C564.45 531.228 563.235 515.847 561.147 500.573C559.333 486.516 556.082 472.681 551.446 459.287C549.75 454.459 547.791 449.725 545.678 445.052C545.794 443.232 545.763 441.406 545.585 439.592C545.477 437.248 545.261 434.965 545.046 432.59C544.83 430.215 544.598 427.963 544.321 425.604C544.043 423.244 543.55 420.977 543.457 418.648C543.465 418.625 543.467 418.6 543.463 418.576C543.459 418.552 543.45 418.529 543.435 418.509C543.421 418.49 543.402 418.474 543.381 418.463C543.359 418.451 543.335 418.446 543.311 418.446C543.286 418.446 543.262 418.451 543.24 418.463C543.219 418.474 543.2 418.49 543.186 418.509C543.171 418.529 543.162 418.552 543.158 418.576C543.154 418.6 543.156 418.625 543.164 418.648C543.621 421.087 543.895 423.556 543.981 426.036C544.166 428.287 544.29 430.539 544.352 432.791C544.429 435.058 544.352 437.309 544.352 439.577C544.352 440.379 544.352 441.242 544.274 442.121C542.131 437.495 539.817 433.068 537.303 428.704C538.846 419.188 536.841 409.24 534.897 399.94C534.897 399.755 534.574 399.848 534.62 400.033C535.581 404.89 536.097 409.826 536.162 414.777C536.255 418.679 536.07 422.581 536.054 426.483C535.499 425.557 534.959 424.617 534.389 423.691C531.412 418.833 528.219 414.068 524.857 409.456C525.133 407.202 525.06 404.918 524.641 402.686C524.264 400.176 523.707 397.697 522.976 395.267C522.235 392.846 521.433 390.455 520.431 388.111C519.429 385.767 518.118 383.407 517.161 381.001C517.069 380.785 516.776 381.001 516.884 381.109C518.11 383.394 519.072 385.81 519.752 388.312C520.518 390.653 521.147 393.037 521.634 395.452C522.128 397.858 522.513 400.28 522.852 402.732C523.084 404.274 523.222 406.017 523.5 407.636C518.59 401.04 513.225 394.794 507.445 388.944C507.306 388.805 507.106 389.021 507.229 389.16C515.977 398.992 523.789 409.617 530.564 420.9L531.289 422.164C530.024 421.378 528.574 420.746 527.387 420.082L520.709 416.412L514.2 412.865C513.09 412.248 511.995 411.6 510.854 411.014C509.5 410.409 508.2 409.692 506.967 408.87C506.936 408.848 506.898 408.838 506.86 408.844C506.823 408.85 506.789 408.87 506.767 408.901C506.744 408.932 506.735 408.97 506.74 409.008C506.746 409.045 506.767 409.079 506.797 409.101C509.003 410.32 510.961 412.186 513.09 413.481C515.218 414.777 517.408 416.165 519.644 417.414C523.716 419.681 528.142 421.316 532.168 423.676C534.944 428.549 537.514 433.541 539.879 438.651C537.442 437.109 534.959 435.567 532.43 434.179C530.81 433.269 529.176 432.374 527.525 431.511C525.886 430.752 524.334 429.815 522.899 428.719C522.869 428.705 522.836 428.7 522.803 428.707C522.771 428.713 522.741 428.729 522.719 428.753C522.696 428.777 522.682 428.808 522.679 428.841C522.675 428.873 522.682 428.906 522.698 428.935C525.37 431.351 528.334 433.424 531.52 435.104C534.466 436.831 537.442 438.497 540.511 439.993C542.958 445.381 545.169 450.856 547.143 456.418C556.798 483.763 560.345 512.788 562.041 541.613C562.55 550.203 562.812 558.794 562.92 567.4C563.028 576.005 562.566 584.58 562.581 593.171C562.581 593.418 562.998 593.479 563.044 593.171C564.077 585.552 564.247 577.748 564.586 570.129C564.925 562.511 564.956 554.46 564.787 546.641Z" fill="#263238"/>
<path d="M523.099 422.858C518.912 421.014 514.843 418.913 510.915 416.566C506.931 414.314 503.065 411.859 499.333 409.209C499.333 409.209 499.209 409.209 499.255 409.317C502.782 412.138 506.497 414.715 510.375 417.029C514.441 419.298 518.644 421.312 522.96 423.059C523.145 423.198 523.284 422.936 523.099 422.858Z" fill="#263238"/>
<path d="M529.746 391.951C529.407 390.625 528.991 389.314 528.543 388.019C528.557 387.995 528.564 387.969 528.564 387.942C528.564 387.915 528.557 387.888 528.543 387.864C528.25 387.124 527.942 386.322 527.649 385.659L527.541 385.381C527.541 385.243 527.417 385.104 527.371 384.965C527.325 384.826 527.279 384.965 527.294 384.965C527.309 384.965 527.433 385.474 527.51 385.721C527.544 385.862 527.585 386 527.633 386.137C529.154 391.238 530.293 396.444 531.042 401.714C531.042 401.884 531.319 401.884 531.304 401.714C531.091 398.418 530.57 395.15 529.746 391.951Z" fill="#263238"/>
<path d="M589.031 552.193L587.396 571.595L582.384 630.771H528.698L523.685 571.595L522.05 552.193H589.031Z" fill="#37474F"/>
<path d="M589.031 552.193L587.396 571.595H523.685L522.05 552.193H589.031Z" fill="#263238"/>
<path d="M594.29 544.405H516.776V563.02H594.29V544.405Z" fill="#37474F"/>
<path d="M7.44214 630.772L85.5425 630.401L163.643 630.263L319.844 630L476.044 630.247L554.145 630.386L632.245 630.772L554.145 631.142L476.044 631.281L319.844 631.543L163.643 631.281L85.5425 631.142L7.44214 630.772Z" fill="#263238"/>
<path d="M450.181 40.3149H189.538C186.034 40.3371 182.569 41.0507 179.342 42.4148C176.115 43.7789 173.189 45.7667 170.731 48.2641C168.274 50.7616 166.334 53.7195 165.022 56.9684C163.711 60.2173 163.053 63.6931 163.088 67.1966V603.905C163.026 610.967 165.771 617.764 170.72 622.802C175.668 627.84 182.414 630.706 189.476 630.772H450.119C453.622 630.747 457.086 630.033 460.313 628.67C463.54 627.306 466.467 625.32 468.926 622.825C471.385 620.33 473.329 617.375 474.645 614.129C475.962 610.882 476.626 607.408 476.6 603.905V67.1966C476.63 63.6968 475.971 60.2253 474.66 56.9802C473.349 53.7352 471.411 50.7802 468.958 48.2839C466.504 45.7877 463.584 43.7992 460.362 42.4318C457.14 41.0645 453.68 40.3452 450.181 40.3149ZM460.097 587.31C460.097 601.438 449.517 612.866 436.47 612.866H203.233C190.154 612.866 179.575 601.438 179.575 587.31V87.5237C179.575 58.745 190.154 57.3416 203.233 57.3416H249.948C252.663 57.3416 254.883 60.4261 254.883 64.2509V65.9011C254.883 74.908 259.788 74.908 265.864 74.908H373.823C379.884 74.908 384.758 74.908 384.758 65.9166V64.2509C384.758 60.4261 386.932 57.3416 389.693 57.3416H436.424C449.471 57.3416 460.051 61.1664 460.051 87.5237L460.097 587.31Z" fill="#263238"/>
<path d="M334.572 63.6957H305.1C304.861 63.6957 304.624 63.6486 304.403 63.5571C304.182 63.4657 303.982 63.3316 303.813 63.1626C303.644 62.9936 303.51 62.793 303.418 62.5722C303.327 62.3514 303.28 62.1148 303.28 61.8758C303.28 61.3931 303.472 60.9302 303.813 60.5889C304.154 60.2476 304.617 60.0559 305.1 60.0559H334.572C335.055 60.0559 335.518 60.2476 335.859 60.5889C336.201 60.9302 336.392 61.3931 336.392 61.8758C336.392 62.1148 336.345 62.3514 336.254 62.5722C336.162 62.793 336.028 62.9936 335.859 63.1626C335.69 63.3316 335.49 63.4657 335.269 63.5571C335.048 63.6486 334.811 63.6957 334.572 63.6957Z" fill="white"/>
<path d="M460.19 87.5237V587.31C460.19 601.438 449.61 612.866 436.562 612.866H203.233C190.154 612.866 179.574 601.438 179.574 587.31V87.5237C179.574 58.745 190.154 57.3416 203.233 57.3416H249.948C252.662 57.3416 254.883 60.4261 254.883 64.2509V65.9011C254.883 74.908 259.788 74.908 265.864 74.908H373.823C379.899 74.908 384.758 74.908 384.758 65.9165V64.2509C384.758 60.4261 386.948 57.3416 389.708 57.3416H436.439C449.533 57.3416 460.19 61.1664 460.19 87.5237Z" fill="white"/>
<path d="M207.968 106.602L199.67 98.8439L207.968 91.0709L209.248 92.4435L202.431 98.8439L209.248 105.244L207.968 106.602Z" fill="#C7C7C7"/>
<path d="M438.382 94.0012C438.382 94.3245 438.286 94.6406 438.107 94.9095C437.927 95.1783 437.672 95.3878 437.373 95.5116C437.074 95.6353 436.746 95.6677 436.428 95.6046C436.111 95.5415 435.82 95.3858 435.591 95.1572C435.363 94.9286 435.207 94.6373 435.144 94.3201C435.081 94.003 435.113 93.6743 435.237 93.3756C435.361 93.0769 435.57 92.8216 435.839 92.6419C436.108 92.4623 436.424 92.3664 436.747 92.3664C436.963 92.3643 437.176 92.4052 437.375 92.4866C437.575 92.5681 437.756 92.6884 437.908 92.8406C438.06 92.9929 438.18 93.1739 438.262 93.3732C438.343 93.5724 438.384 93.7859 438.382 94.0012Z" fill="#C7C7C7"/>
<path d="M438.382 99.8002C438.382 100.123 438.286 100.44 438.107 100.708C437.927 100.977 437.672 101.187 437.373 101.311C437.074 101.434 436.746 101.467 436.428 101.404C436.111 101.34 435.82 101.185 435.591 100.956C435.363 100.728 435.207 100.436 435.144 100.119C435.081 99.802 435.113 99.4733 435.237 99.1745C435.361 98.8758 435.57 98.6205 435.839 98.4409C436.108 98.2612 436.424 98.1654 436.747 98.1654C436.963 98.1633 437.176 98.2042 437.375 98.2856C437.575 98.367 437.756 98.4874 437.908 98.6396C438.06 98.7918 438.18 98.9728 438.262 99.1721C438.343 99.3714 438.384 99.5849 438.382 99.8002Z" fill="#C7C7C7"/>
<path d="M438.382 105.599C438.382 105.922 438.286 106.239 438.107 106.507C437.927 106.776 437.672 106.986 437.373 107.109C437.074 107.233 436.746 107.266 436.428 107.202C436.111 107.139 435.82 106.984 435.591 106.755C435.363 106.526 435.207 106.235 435.144 105.918C435.081 105.601 435.113 105.272 435.237 104.974C435.361 104.675 435.57 104.419 435.839 104.24C436.108 104.06 436.424 103.964 436.747 103.964C436.963 103.962 437.176 104.003 437.375 104.085C437.575 104.166 437.756 104.286 437.908 104.439C438.06 104.591 438.18 104.772 438.262 104.971C438.343 105.17 438.384 105.384 438.382 105.599Z" fill="#C7C7C7"/>
<path d="M241.882 68.5692L241.435 69.0165L241.173 69.2632C240.017 68.1142 238.453 67.4693 236.823 67.4693C235.194 67.4693 233.63 68.1142 232.474 69.2632L232.228 69.001L231.78 68.5538L232.351 68.0448C232.765 67.7243 233.209 67.4453 233.677 67.212C234.232 66.9322 234.824 66.7347 235.435 66.6259C235.721 66.5685 236.009 66.5274 236.299 66.5026H237.07H237.656C238.209 66.5687 238.752 66.6981 239.276 66.8881C239.648 67.0293 240.009 67.1994 240.355 67.3971C240.721 67.6067 241.067 67.8493 241.389 68.1219L241.867 68.5538L241.882 68.5692Z" fill="#C7C7C7"/>
<path d="M233.909 70.6821L233.184 69.9726C234.152 69.012 235.46 68.4729 236.824 68.4729C238.187 68.4729 239.496 69.012 240.463 69.9726L239.738 70.6821C238.964 69.9117 237.916 69.4792 236.824 69.4792C235.731 69.4792 234.683 69.9117 233.909 70.6821Z" fill="#C7C7C7"/>
<path d="M239.029 71.407L238.319 72.101C238.116 71.9014 237.875 71.7442 237.61 71.6383C237.345 71.5324 237.062 71.48 236.777 71.4841C236.49 71.4785 236.206 71.5317 235.94 71.6405C235.675 71.7492 235.435 71.9112 235.235 72.1164C235.004 71.8696 234.757 71.6383 234.525 71.407C234.814 71.0988 235.163 70.8531 235.55 70.6852C235.937 70.5172 236.355 70.4305 236.777 70.4305C237.199 70.4305 237.617 70.5172 238.004 70.6852C238.392 70.8531 238.74 71.0988 239.029 71.407Z" fill="#C7C7C7"/>
<path d="M237.471 72.7487C237.471 72.9205 237.403 73.0853 237.281 73.2068C237.16 73.3282 236.995 73.3965 236.823 73.3965C236.739 73.3965 236.656 73.3796 236.578 73.3469C236.5 73.3142 236.43 73.2662 236.371 73.2059C236.312 73.1455 236.266 73.0739 236.235 72.9954C236.204 72.9169 236.189 72.833 236.191 72.7487C236.191 72.581 236.258 72.4202 236.376 72.3016C236.495 72.183 236.656 72.1164 236.823 72.1164C236.908 72.1143 236.992 72.1292 237.07 72.16C237.149 72.1909 237.22 72.2371 237.281 72.2961C237.341 72.355 237.389 72.4254 237.422 72.5031C237.454 72.5809 237.471 72.6644 237.471 72.7487Z" fill="#C7C7C7"/>
<path d="M197.866 69.9264C197.866 69.5566 197.976 69.1952 198.181 68.888C198.387 68.5808 198.679 68.3417 199.021 68.2009C199.363 68.0601 199.739 68.024 200.102 68.0973C200.464 68.1706 200.797 68.3498 201.057 68.6124C201.317 68.8749 201.494 69.2089 201.564 69.5719C201.634 69.9349 201.595 70.3106 201.452 70.6513C201.308 70.992 201.066 71.2824 200.757 71.4856C200.449 71.6887 200.086 71.7956 199.717 71.7925C199.472 71.7925 199.23 71.7442 199.005 71.6502C198.779 71.5562 198.574 71.4185 198.402 71.245C198.23 71.0715 198.094 70.8657 198.002 70.6394C197.91 70.413 197.864 70.1707 197.866 69.9264Z" fill="#C7C7C7"/>
<path d="M203.711 69.9265C203.717 69.5588 203.832 69.2011 204.04 68.8983C204.249 68.5954 204.543 68.3611 204.884 68.2245C205.226 68.088 205.6 68.0554 205.96 68.1309C206.32 68.2063 206.649 68.3865 206.907 68.6486C207.165 68.9108 207.34 69.2433 207.409 69.6045C207.479 69.9656 207.44 70.3392 207.298 70.6784C207.156 71.0176 206.917 71.3073 206.611 71.511C206.304 71.7147 205.945 71.8234 205.577 71.8235C205.329 71.8235 205.084 71.7742 204.856 71.6785C204.627 71.5828 204.42 71.4426 204.247 71.266C204.073 71.0895 203.936 70.8801 203.844 70.6501C203.752 70.4201 203.707 70.1741 203.711 69.9265Z" fill="#C7C7C7"/>
<path d="M209.572 69.9265C209.578 69.5588 209.692 69.2011 209.901 68.8983C210.11 68.5954 210.403 68.3611 210.745 68.2245C211.086 68.088 211.46 68.0554 211.82 68.1309C212.18 68.2063 212.51 68.3865 212.768 68.6486C213.026 68.9108 213.2 69.2433 213.27 69.6045C213.339 69.9656 213.301 70.3392 213.159 70.6784C213.017 71.0176 212.777 71.3073 212.471 71.511C212.165 71.7147 211.805 71.8234 211.438 71.8235C211.19 71.8235 210.945 71.7742 210.716 71.6785C210.488 71.5828 210.281 71.4426 210.107 71.266C209.933 71.0895 209.797 70.8801 209.705 70.6501C209.613 70.4201 209.567 70.1741 209.572 69.9265Z" fill="#C7C7C7"/>
<path d="M215.432 69.9264C215.438 69.558 215.553 69.1997 215.763 68.8966C215.972 68.5935 216.267 68.3592 216.609 68.2231C216.951 68.087 217.326 68.0554 217.687 68.1321C218.047 68.2088 218.377 68.3904 218.634 68.6542C218.891 68.9179 219.065 69.2518 219.132 69.614C219.2 69.9761 219.159 70.3502 219.015 70.6891C218.87 71.028 218.629 71.3166 218.321 71.5184C218.012 71.7203 217.651 71.8264 217.283 71.8234C217.036 71.8235 216.791 71.7741 216.564 71.6782C216.336 71.5824 216.13 71.4419 215.958 71.2651C215.785 71.0883 215.65 70.8788 215.56 70.6489C215.469 70.419 215.426 70.1733 215.432 69.9264Z" fill="#C7C7C7"/>
<path d="M221.293 69.9264C221.299 69.558 221.414 69.1997 221.623 68.8966C221.833 68.5935 222.127 68.3592 222.47 68.2231C222.812 68.087 223.187 68.0554 223.547 68.1321C223.908 68.2088 224.237 68.3904 224.494 68.6542C224.752 68.9179 224.925 69.2518 224.993 69.614C225.061 69.9761 225.02 70.3502 224.875 70.6891C224.731 71.028 224.489 71.3166 224.181 71.5184C223.873 71.7203 223.512 71.8264 223.144 71.8234C222.897 71.8235 222.652 71.7741 222.424 71.6782C222.197 71.5824 221.991 71.4419 221.818 71.2651C221.646 71.0883 221.51 70.8788 221.42 70.6489C221.33 70.419 221.287 70.1733 221.293 69.9264Z" fill="#C7C7C7"/>
<path d="M439.076 73.9981H423.916V66.9653H439.076V73.9981ZM424.718 73.2115H438.29V67.7519H424.718V73.2115Z" fill="#C7C7C7"/>
<path d="M434.943 68.1682H425.18V72.795H434.943V68.1682Z" fill="#C7C7C7"/>
<path d="M440.418 68.6001H439.076V72.3478H440.418V68.6001Z" fill="#C7C7C7"/>
<path d="M222.203 582.313H220.059V592.107H216.08V587.11H209.016V592.107H205.037V582.313H202.909L212.548 572.335L222.203 582.313Z" fill="#EBEBEB"/>
<path d="M436.794 572.335H413.536V575.651H436.794V572.335Z" fill="#EBEBEB"/>
<path d="M436.794 580.555H413.536V583.871H436.794V580.555Z" fill="#EBEBEB"/>
<path d="M436.794 588.776H413.536V592.091H436.794V588.776Z" fill="#EBEBEB"/>
<path d="M326.46 580.894L319.844 587.958L313.227 580.894L314.399 579.815L319.844 585.614L325.288 579.815L326.46 580.894Z" fill="#EBEBEB"/>
<path d="M319.844 595.253C317.467 595.253 315.145 594.548 313.169 593.228C311.193 591.908 309.653 590.032 308.744 587.837C307.835 585.641 307.597 583.226 308.06 580.895C308.524 578.564 309.668 576.424 311.348 574.744C313.028 573.063 315.169 571.919 317.5 571.455C319.83 570.992 322.246 571.23 324.441 572.139C326.637 573.048 328.513 574.588 329.833 576.564C331.153 578.54 331.858 580.863 331.858 583.239C331.85 586.423 330.581 589.474 328.33 591.725C326.079 593.977 323.027 595.245 319.844 595.253ZM319.844 572.813C317.782 572.813 315.766 573.425 314.051 574.57C312.337 575.716 311.001 577.344 310.212 579.249C309.422 581.154 309.216 583.25 309.618 585.273C310.02 587.295 311.013 589.153 312.472 590.611C313.93 592.069 315.787 593.062 317.81 593.464C319.832 593.867 321.928 593.66 323.833 592.871C325.738 592.082 327.367 590.746 328.512 589.031C329.658 587.317 330.269 585.301 330.269 583.239C330.269 580.474 329.171 577.822 327.216 575.867C325.261 573.912 322.609 572.813 319.844 572.813Z" fill="#EBEBEB"/>
<path d="M301.907 540.071C301.907 540.864 301.672 541.639 301.231 542.299C300.791 542.958 300.164 543.472 299.432 543.776C298.699 544.079 297.893 544.158 297.115 544.004C296.337 543.849 295.622 543.467 295.062 542.906C294.501 542.346 294.119 541.631 293.964 540.853C293.81 540.075 293.889 539.269 294.192 538.536C294.496 537.804 295.01 537.177 295.669 536.737C296.329 536.296 297.104 536.061 297.897 536.061C298.424 536.059 298.947 536.161 299.434 536.362C299.921 536.563 300.364 536.858 300.737 537.231C301.11 537.604 301.405 538.047 301.606 538.534C301.807 539.021 301.909 539.544 301.907 540.071Z" fill="#DBDBDB"/>
<path d="M326.352 540.071C326.352 541.273 325.996 542.448 325.328 543.447C324.66 544.446 323.711 545.225 322.601 545.685C321.491 546.145 320.269 546.265 319.09 546.031C317.911 545.796 316.829 545.217 315.979 544.368C315.129 543.518 314.55 542.435 314.316 541.256C314.081 540.078 314.202 538.856 314.662 537.746C315.121 536.635 315.9 535.686 316.9 535.018C317.899 534.351 319.074 533.994 320.276 533.994C321.887 533.994 323.433 534.635 324.572 535.774C325.712 536.914 326.352 538.459 326.352 540.071Z" fill="#3A998E"/>
<path d="M346.664 540.071C346.664 540.864 346.428 541.639 345.988 542.299C345.547 542.958 344.921 543.472 344.188 543.776C343.455 544.079 342.649 544.158 341.871 544.004C341.094 543.849 340.379 543.467 339.818 542.906C339.257 542.346 338.876 541.631 338.721 540.853C338.566 540.075 338.646 539.269 338.949 538.536C339.253 537.804 339.766 537.177 340.426 536.737C341.085 536.296 341.861 536.061 342.654 536.061C343.181 536.059 343.703 536.161 344.191 536.362C344.678 536.563 345.121 536.858 345.494 537.231C345.866 537.604 346.162 538.047 346.363 538.534C346.563 539.021 346.666 539.544 346.664 540.071Z" fill="#DBDBDB"/>
<path d="M373.098 428.349H264.862V462.772H373.098V428.349Z" fill="#3A998E"/>
<path d="M295.167 450.388V441.135C295.165 441.021 295.186 440.907 295.229 440.802C295.271 440.696 295.335 440.6 295.416 440.519C295.496 440.439 295.592 440.375 295.698 440.332C295.804 440.29 295.917 440.269 296.031 440.271C296.146 440.269 296.26 440.29 296.366 440.332C296.473 440.375 296.57 440.438 296.652 440.518C296.733 440.599 296.798 440.695 296.843 440.8C296.887 440.906 296.91 441.02 296.91 441.135V449.571H301.198C301.431 449.571 301.654 449.663 301.819 449.828C301.984 449.993 302.077 450.217 302.077 450.45C302.077 450.683 301.984 450.907 301.819 451.071C301.654 451.236 301.431 451.329 301.198 451.329H296.031C295.911 451.329 295.792 451.305 295.682 451.257C295.571 451.209 295.473 451.138 295.391 451.049C295.31 450.961 295.248 450.856 295.209 450.742C295.171 450.629 295.157 450.508 295.167 450.388Z" fill="white"/>
<path d="M312.132 441.566C313.16 442.642 313.733 444.073 313.733 445.561C313.733 447.049 313.16 448.479 312.132 449.555C311.657 450.084 311.077 450.507 310.429 450.8C309.781 451.092 309.08 451.246 308.369 451.252C307.642 451.25 306.923 451.099 306.257 450.807C305.591 450.515 304.992 450.089 304.498 449.555C303.488 448.471 302.926 447.043 302.926 445.561C302.926 444.078 303.488 442.651 304.498 441.566C304.99 441.03 305.588 440.602 306.255 440.309C306.921 440.017 307.641 439.868 308.369 439.87C309.08 439.873 309.783 440.026 310.431 440.318C311.079 440.61 311.659 441.036 312.132 441.566ZM311.932 445.561C311.932 444.538 311.546 443.552 310.852 442.8C310.539 442.451 310.156 442.171 309.729 441.977C309.301 441.783 308.838 441.68 308.369 441.674C307.887 441.672 307.411 441.771 306.97 441.965C306.529 442.159 306.133 442.444 305.809 442.8C305.11 443.549 304.724 444.536 304.73 445.561C304.72 446.581 305.107 447.566 305.809 448.306C306.132 448.665 306.527 448.951 306.968 449.148C307.409 449.345 307.886 449.447 308.369 449.447C308.839 449.439 309.303 449.333 309.73 449.136C310.158 448.94 310.54 448.657 310.852 448.306C311.525 447.552 311.889 446.571 311.87 445.561H311.932Z" fill="white"/>
<path d="M316.296 445.576C316.322 444.493 316.647 443.438 317.237 442.53C317.827 441.621 318.658 440.894 319.637 440.43C320.616 439.966 321.705 439.784 322.781 439.902C323.858 440.021 324.881 440.437 325.735 441.104C325.923 441.251 326.045 441.467 326.074 441.704C326.103 441.941 326.037 442.18 325.889 442.368C325.742 442.556 325.526 442.678 325.289 442.707C325.052 442.736 324.813 442.67 324.625 442.522C323.914 441.972 323.04 441.674 322.142 441.674C321.613 441.666 321.088 441.764 320.598 441.963C320.107 442.162 319.662 442.457 319.288 442.831C318.914 443.18 318.615 443.603 318.411 444.072C318.207 444.542 318.101 445.049 318.101 445.561C318.101 446.073 318.207 446.579 318.411 447.049C318.615 447.519 318.914 447.941 319.288 448.29C319.662 448.665 320.107 448.96 320.598 449.158C321.088 449.357 321.613 449.455 322.142 449.447C322.902 449.442 323.647 449.234 324.301 448.846V446.687H322.034C321.796 446.679 321.571 446.58 321.404 446.41C321.238 446.241 321.143 446.014 321.139 445.777C321.143 445.542 321.239 445.318 321.406 445.154C321.574 444.99 321.799 444.897 322.034 444.897H325.118C325.237 444.893 325.355 444.913 325.466 444.955C325.577 444.997 325.679 445.061 325.765 445.143C325.851 445.225 325.92 445.323 325.968 445.432C326.016 445.541 326.042 445.658 326.044 445.777V449.278C326.052 449.365 326.052 449.453 326.044 449.54C325.988 449.7 325.879 449.836 325.735 449.925C324.884 450.592 323.865 451.009 322.792 451.129C321.718 451.25 320.632 451.07 319.654 450.61C318.677 450.149 317.847 449.425 317.256 448.52C316.666 447.615 316.339 446.564 316.312 445.484L316.296 445.576Z" fill="white"/>
<path d="M329.776 441.057C329.774 440.943 329.795 440.83 329.837 440.724C329.88 440.619 329.943 440.523 330.024 440.442C330.105 440.361 330.201 440.298 330.306 440.255C330.412 440.213 330.525 440.192 330.639 440.194C330.755 440.192 330.87 440.212 330.977 440.255C331.084 440.297 331.183 440.36 331.266 440.44C331.349 440.52 331.415 440.616 331.461 440.722C331.507 440.828 331.532 440.942 331.534 441.057V450.311C331.526 450.543 331.428 450.763 331.261 450.924C331.094 451.085 330.871 451.175 330.639 451.175C330.525 451.177 330.412 451.156 330.306 451.113C330.201 451.071 330.105 451.007 330.024 450.926C329.943 450.846 329.88 450.75 329.837 450.644C329.795 450.538 329.774 450.425 329.776 450.311V441.057Z" fill="white"/>
<path d="M336.223 450.388C336.223 450.617 336.132 450.837 335.97 450.999C335.808 451.161 335.588 451.252 335.359 451.252C335.13 451.252 334.91 451.161 334.748 450.999C334.586 450.837 334.495 450.617 334.495 450.388V441.134C334.492 440.994 334.523 440.855 334.585 440.729C334.646 440.603 334.737 440.493 334.85 440.41C335.037 440.283 335.265 440.232 335.488 440.266C335.711 440.3 335.913 440.418 336.053 440.595L341.158 447.658V441.196C341.158 441.085 341.18 440.974 341.223 440.872C341.265 440.769 341.328 440.675 341.406 440.596C341.485 440.518 341.579 440.455 341.682 440.412C341.784 440.37 341.895 440.348 342.006 440.348C342.233 440.348 342.45 440.437 342.611 440.595C342.773 440.754 342.866 440.97 342.87 441.196V450.45C342.866 450.678 342.774 450.895 342.612 451.056C342.451 451.217 342.234 451.309 342.006 451.313C341.881 451.312 341.757 451.282 341.645 451.226C341.533 451.17 341.435 451.089 341.358 450.99L341.281 450.897L336.223 443.88V450.388Z" fill="white"/>
<path d="M346.062 161.876V173.15H338.089V161.876C338.089 151.08 329.93 142.428 319.905 142.428C309.88 142.428 301.722 151.142 301.722 161.876V190.1H293.625V161.876C293.625 146.454 305.362 134.008 319.844 134.008C334.325 134.008 346.062 146.515 346.062 161.876Z" fill="#C7C7C7"/>
<path d="M293.687 173.181L301.66 173.505V190.1H293.687V173.181Z" fill="#A6A6A6"/>
<path d="M356.226 180.646H283.462V246.655H356.226V180.646Z" fill="#3A998E"/>
<path opacity="0.1" d="M356.226 180.646H319.844V246.655H356.226V180.646Z" fill="black"/>
<path d="M322.928 216.072L326.013 230.507H313.089L316.173 216.072C314.977 215.329 314.055 214.217 313.547 212.903C313.04 211.589 312.974 210.146 313.36 208.792C313.746 207.438 314.563 206.246 315.687 205.398C316.811 204.55 318.181 204.091 319.589 204.091C320.998 204.091 322.367 204.55 323.491 205.398C324.615 206.246 325.432 207.438 325.819 208.792C326.205 210.146 326.139 211.589 325.631 212.903C325.124 214.217 324.202 215.329 323.005 216.072H322.928Z" fill="#263238"/>
<path d="M413.552 319.496H226.151V351.575H413.552V319.496Z" fill="white"/>
<path d="M414.307 352.346H225.38V318.725H414.307V352.346ZM226.922 350.804H412.765V320.267H226.922V350.804Z" fill="#EBEBEB"/>
<path d="M245.599 328.349H244.057V342.059H245.599V328.349Z" fill="#37474F"/>
<path d="M251.691 334.425H237.98V335.967H251.691V334.425Z" fill="#37474F"/>
<path d="M249.14 329.796L239.441 339.488L240.531 340.578L250.23 330.887L249.14 329.796Z" fill="#37474F"/>
<path d="M240.52 329.804L239.429 330.895L249.124 340.589L250.215 339.499L240.52 329.804Z" fill="#37474F"/>
<path d="M268.856 328.349H267.314V342.059H268.856V328.349Z" fill="#37474F"/>
<path d="M274.948 334.425H261.238V335.967H274.948V334.425Z" fill="#37474F"/>
<path d="M272.392 329.812L262.694 339.504L263.784 340.595L273.482 330.903L272.392 329.812Z" fill="#37474F"/>
<path d="M263.782 329.799L262.692 330.89L272.387 340.585L273.477 339.494L263.782 329.799Z" fill="#37474F"/>
<path d="M292.114 328.349H290.572V342.059H292.114V328.349Z" fill="#37474F"/>
<path d="M298.206 334.425H284.495V335.967H298.206V334.425Z" fill="#37474F"/>
<path d="M295.645 329.813L285.946 339.505L287.036 340.596L296.735 330.904L295.645 329.813Z" fill="#37474F"/>
<path d="M287.045 329.794L285.954 330.885L295.649 340.58L296.74 339.489L287.045 329.794Z" fill="#37474F"/>
<path d="M315.387 328.349H313.844V342.059H315.387V328.349Z" fill="#37474F"/>
<path d="M321.463 334.425H307.752V335.967H321.463V334.425Z" fill="#37474F"/>
<path d="M318.913 329.814L309.214 339.505L310.305 340.596L320.003 330.905L318.913 329.814Z" fill="#37474F"/>
<path d="M310.318 329.809L309.227 330.9L318.922 340.595L320.013 339.504L310.318 329.809Z" fill="#37474F"/>
<path d="M338.644 328.349H337.102V342.059H338.644V328.349Z" fill="#37474F"/>
<path d="M344.721 334.425H331.01V335.967H344.721V334.425Z" fill="#37474F"/>
<path d="M342.165 329.815L332.467 339.506L333.557 340.597L343.255 330.906L342.165 329.815Z" fill="#37474F"/>
<path d="M333.565 329.789L332.474 330.879L342.169 340.574L343.26 339.484L333.565 329.789Z" fill="#37474F"/>
<path d="M361.901 328.349H360.359V342.059H361.901V328.349Z" fill="#37474F"/>
<path d="M367.993 334.425H354.282V335.967H367.993V334.425Z" fill="#37474F"/>
<path d="M365.429 329.805L355.73 339.496L356.821 340.587L366.519 330.896L365.429 329.805Z" fill="#37474F"/>
<path d="M356.827 329.784L355.736 330.875L365.431 340.57L366.522 339.479L356.827 329.784Z" fill="#37474F"/>
<path d="M397.543 340.486C395.87 340.386 394.238 339.919 392.765 339.12C391.291 338.321 390.011 337.208 389.014 335.859L388.675 335.397L389.014 334.949C389.948 333.556 391.21 332.414 392.689 331.625C394.169 330.835 395.82 330.422 397.497 330.422C399.174 330.422 400.825 330.835 402.304 331.625C403.784 332.414 405.046 333.556 405.979 334.949L406.303 335.397L405.979 335.859C404.993 337.197 403.728 338.303 402.271 339.102C400.814 339.901 399.201 340.374 397.543 340.486ZM390.634 335.458C391.429 336.554 392.472 337.446 393.679 338.061C394.885 338.676 396.22 338.997 397.574 338.997C398.928 338.997 400.263 338.676 401.469 338.061C402.675 337.446 403.719 336.554 404.514 335.458C403.719 334.362 402.675 333.47 401.469 332.855C400.263 332.24 398.928 331.92 397.574 331.92C396.22 331.92 394.885 332.24 393.679 332.855C392.472 333.47 391.429 334.362 390.634 335.458Z" fill="#EBEBEB"/>
<path d="M397.528 338.928C399.444 338.928 400.998 337.375 400.998 335.458C400.998 333.542 399.444 331.988 397.528 331.988C395.611 331.988 394.058 333.542 394.058 335.458C394.058 337.375 395.611 338.928 397.528 338.928Z" fill="#EBEBEB"/>
<path d="M403.241 328.5L390.918 340.823L392.009 341.913L404.332 329.59L403.241 328.5Z" fill="#EBEBEB"/>
<path d="M269.458 286.09H266.99V290.424C266.99 290.719 266.873 291.001 266.665 291.209C266.457 291.418 266.174 291.535 265.88 291.535C265.585 291.535 265.303 291.418 265.095 291.209C264.886 291.001 264.769 290.719 264.769 290.424V278.626C264.769 278.481 264.798 278.337 264.854 278.203C264.91 278.069 264.992 277.948 265.095 277.846C265.199 277.744 265.321 277.664 265.456 277.61C265.591 277.556 265.735 277.529 265.88 277.531H269.458C270.041 277.496 270.626 277.581 271.176 277.78C271.725 277.979 272.229 278.289 272.654 278.689C273.08 279.09 273.419 279.574 273.651 280.111C273.883 280.647 274.002 281.226 274.002 281.811C274.002 282.395 273.883 282.974 273.651 283.511C273.419 284.047 273.08 284.531 272.654 284.932C272.229 285.333 271.725 285.642 271.176 285.842C270.626 286.041 270.041 286.126 269.458 286.09ZM266.99 283.87H269.458C269.743 283.894 270.031 283.859 270.302 283.767C270.573 283.675 270.822 283.527 271.033 283.334C271.244 283.14 271.413 282.905 271.528 282.643C271.643 282.38 271.703 282.097 271.703 281.811C271.703 281.524 271.643 281.241 271.528 280.979C271.413 280.717 271.244 280.481 271.033 280.288C270.822 280.094 270.573 279.946 270.302 279.854C270.031 279.762 269.743 279.727 269.458 279.752H266.99V283.87Z" fill="#3A998E"/>
<path d="M282.182 288.219H277.323L276.336 290.825C276.25 291.029 276.106 291.202 275.923 291.326C275.739 291.449 275.524 291.516 275.303 291.519C275.176 291.543 275.045 291.543 274.917 291.519C274.641 291.415 274.416 291.206 274.292 290.938C274.168 290.67 274.154 290.363 274.254 290.085L278.681 278.302C278.769 278.094 278.918 277.917 279.107 277.793C279.297 277.67 279.519 277.605 279.745 277.608C279.97 277.602 280.191 277.665 280.379 277.79C280.566 277.914 280.711 278.093 280.793 278.302L285.22 290.085C285.32 290.363 285.306 290.67 285.182 290.938C285.058 291.206 284.833 291.415 284.557 291.519C284.429 291.546 284.298 291.546 284.171 291.519C283.951 291.519 283.737 291.453 283.555 291.329C283.374 291.205 283.234 291.03 283.153 290.825L282.182 288.219ZM281.364 286.029L279.745 281.726L278.202 286.029H281.364Z" fill="#3A998E"/>
<path d="M287.179 288.049C287.265 287.931 287.376 287.833 287.504 287.761C287.631 287.689 287.773 287.645 287.918 287.632C288.064 287.619 288.211 287.637 288.349 287.685C288.488 287.733 288.614 287.81 288.721 287.91C289.795 288.824 291.137 289.366 292.546 289.453C293.435 289.471 294.308 289.212 295.044 288.712C295.294 288.562 295.504 288.352 295.654 288.102C295.805 287.852 295.892 287.569 295.908 287.278C295.912 287.053 295.848 286.832 295.723 286.646C295.567 286.404 295.362 286.199 295.121 286.044C294.273 285.562 293.342 285.243 292.376 285.103C291.483 284.951 290.612 284.687 289.785 284.317C289.032 283.992 288.39 283.456 287.934 282.775C287.624 282.286 287.464 281.718 287.472 281.14C287.485 280.565 287.631 280.002 287.898 279.493C288.166 278.985 288.548 278.545 289.014 278.209C290.028 277.508 291.236 277.141 292.468 277.161C294.045 277.228 295.565 277.765 296.833 278.703C296.945 278.777 297.041 278.873 297.116 278.985C297.19 279.097 297.242 279.223 297.268 279.355C297.293 279.486 297.293 279.622 297.266 279.754C297.239 279.886 297.186 280.011 297.111 280.122C297.04 280.238 296.947 280.338 296.836 280.417C296.725 280.496 296.6 280.551 296.467 280.58C296.335 280.609 296.198 280.611 296.064 280.585C295.931 280.559 295.804 280.506 295.692 280.43C294.773 279.686 293.648 279.239 292.468 279.15C291.67 279.136 290.888 279.374 290.232 279.829C290.011 279.96 289.826 280.144 289.694 280.365C289.562 280.586 289.487 280.836 289.476 281.093C289.462 281.289 289.51 281.483 289.615 281.649C289.759 281.857 289.943 282.035 290.155 282.173C290.923 282.624 291.772 282.923 292.654 283.052C293.603 283.221 294.53 283.5 295.414 283.885C296.225 284.242 296.92 284.819 297.419 285.551C297.729 286.062 297.895 286.649 297.897 287.247C297.875 287.861 297.707 288.462 297.406 288.998C297.106 289.534 296.682 289.992 296.17 290.332C295.095 291.096 293.803 291.496 292.484 291.473C290.603 291.387 288.803 290.682 287.364 289.468C287.159 289.299 287.026 289.058 286.991 288.795C286.957 288.532 287.024 288.265 287.179 288.049Z" fill="#3A998E"/>
<path d="M300.334 288.049C300.419 287.943 300.524 287.856 300.644 287.791C300.763 287.727 300.895 287.687 301.03 287.674C301.165 287.661 301.301 287.676 301.43 287.716C301.56 287.757 301.68 287.823 301.784 287.91C302.858 288.824 304.2 289.366 305.609 289.453C306.498 289.473 307.372 289.214 308.107 288.712C308.357 288.562 308.566 288.352 308.717 288.102C308.867 287.852 308.955 287.569 308.971 287.278C308.975 287.053 308.911 286.832 308.786 286.646C308.634 286.401 308.429 286.195 308.184 286.044C307.341 285.561 306.415 285.242 305.454 285.103C304.566 284.953 303.7 284.689 302.879 284.317C302.124 283.988 301.477 283.454 301.013 282.775C300.708 282.284 300.548 281.717 300.55 281.14C300.563 280.565 300.709 280.002 300.977 279.493C301.244 278.985 301.626 278.545 302.092 278.209C303.106 277.508 304.314 277.141 305.547 277.161C307.123 277.228 308.643 277.765 309.911 278.703C310.023 278.777 310.119 278.873 310.194 278.985C310.268 279.097 310.32 279.223 310.346 279.355C310.372 279.486 310.371 279.622 310.344 279.754C310.317 279.886 310.265 280.011 310.189 280.122C310.118 280.238 310.025 280.338 309.914 280.417C309.804 280.496 309.678 280.551 309.546 280.58C309.413 280.609 309.276 280.611 309.143 280.585C309.009 280.559 308.883 280.506 308.77 280.43C307.851 279.686 306.726 279.239 305.547 279.15C304.749 279.136 303.966 279.374 303.311 279.829C303.089 279.96 302.904 280.144 302.772 280.365C302.64 280.586 302.565 280.836 302.555 281.093C302.54 281.289 302.589 281.483 302.694 281.649C302.838 281.857 303.021 282.035 303.233 282.173C304.003 282.622 304.851 282.92 305.732 283.052C306.681 283.221 307.608 283.5 308.493 283.885C309.301 284.239 309.991 284.817 310.482 285.551C310.803 286.058 310.969 286.647 310.96 287.247C310.941 287.86 310.775 288.46 310.478 288.997C310.18 289.533 309.758 289.991 309.248 290.332C308.169 291.1 306.871 291.5 305.547 291.473C303.666 291.387 301.866 290.682 300.426 289.468C300.239 289.284 300.126 289.038 300.108 288.776C300.091 288.514 300.172 288.255 300.334 288.049Z" fill="#3A998E"/>
<path d="M332.058 279.181L327.154 290.825C327.134 290.895 327.097 290.958 327.046 291.01C327.046 291.01 327.046 291.087 326.954 291.134C326.861 291.18 326.954 291.134 326.954 291.134L326.815 291.226C326.815 291.226 326.722 291.334 326.63 291.35H326.46H325.982H325.843C325.773 291.331 325.713 291.287 325.673 291.226L325.535 291.134C325.535 291.134 325.535 291.057 325.458 291.01C325.449 290.949 325.449 290.887 325.458 290.825L322.836 284.656L320.214 290.825C320.214 290.825 320.214 290.964 320.137 291.01L320.013 291.134C319.966 291.155 319.924 291.187 319.89 291.226L319.736 291.35C319.685 291.339 319.632 291.339 319.581 291.35H319.088H318.934C318.863 291.323 318.8 291.281 318.749 291.226C318.749 291.226 318.672 291.226 318.61 291.134L318.517 291.01C318.517 291.01 318.517 290.887 318.409 290.825L313.49 279.166C313.401 278.902 313.415 278.615 313.531 278.362C313.646 278.109 313.853 277.909 314.11 277.803C314.367 277.697 314.654 277.693 314.914 277.792C315.174 277.89 315.387 278.083 315.51 278.333L319.427 287.586L322.018 281.417C322.104 281.215 322.248 281.042 322.432 280.921C322.616 280.8 322.831 280.737 323.052 280.739C323.273 280.741 323.488 280.807 323.674 280.927C323.859 281.047 324.007 281.217 324.1 281.417L326.676 287.586L330.578 278.333C330.693 278.064 330.911 277.851 331.182 277.741C331.454 277.632 331.757 277.634 332.028 277.747C332.204 277.942 332.305 278.195 332.311 278.458C332.316 278.722 332.227 278.978 332.058 279.181Z" fill="#3A998E"/>
<path d="M346.062 279.258C347.361 280.625 348.085 282.439 348.085 284.325C348.085 286.21 347.361 288.024 346.062 289.391C345.454 290.055 344.716 290.587 343.893 290.953C343.071 291.319 342.182 291.512 341.281 291.519C340.362 291.514 339.454 291.323 338.611 290.957C337.768 290.591 337.008 290.059 336.377 289.391C335.109 288.008 334.405 286.201 334.405 284.325C334.405 282.449 335.109 280.641 336.377 279.258C337.006 278.588 337.765 278.053 338.609 277.687C339.452 277.321 340.362 277.131 341.281 277.13C342.182 277.134 343.073 277.325 343.896 277.691C344.719 278.057 345.457 278.591 346.062 279.258ZM345.8 284.317C345.8 283.026 345.316 281.782 344.443 280.831C344.045 280.386 343.558 280.03 343.013 279.786C342.468 279.541 341.878 279.414 341.281 279.412C340.672 279.408 340.069 279.532 339.511 279.777C338.952 280.021 338.452 280.38 338.042 280.831C337.164 281.779 336.679 283.025 336.685 284.317C336.673 285.61 337.159 286.858 338.042 287.802C338.453 288.253 338.953 288.613 339.511 288.86C340.069 289.107 340.671 289.235 341.281 289.237C341.879 289.228 342.468 289.097 343.012 288.85C343.556 288.603 344.043 288.246 344.443 287.802C345.298 286.845 345.76 285.6 345.738 284.317H345.8Z" fill="#3A998E"/>
<path d="M361.223 289.869C361.271 290.006 361.291 290.15 361.282 290.295C361.273 290.439 361.235 290.581 361.17 290.71C361.105 290.84 361.015 290.955 360.905 291.049C360.795 291.143 360.667 291.213 360.529 291.257C360.381 291.281 360.229 291.281 360.081 291.257C359.809 291.263 359.54 291.188 359.31 291.041C359.038 290.869 358.815 290.63 358.663 290.347C358.344 289.587 358.202 288.764 358.246 287.941C358.244 287.636 358.158 287.338 357.999 287.077C357.851 286.839 357.644 286.643 357.398 286.507C357.057 286.287 356.682 286.125 356.287 286.029H353.928V290.362C353.926 290.508 353.895 290.652 353.837 290.786C353.78 290.92 353.696 291.041 353.592 291.143C353.487 291.245 353.364 291.325 353.228 291.379C353.093 291.433 352.948 291.46 352.802 291.457C352.511 291.457 352.233 291.342 352.028 291.137C351.822 290.931 351.707 290.653 351.707 290.362V278.564C351.705 278.42 351.732 278.276 351.786 278.143C351.84 278.009 351.921 277.887 352.023 277.785C352.125 277.683 352.247 277.603 352.38 277.548C352.514 277.494 352.658 277.467 352.802 277.469H356.38C357.262 277.466 358.123 277.735 358.846 278.24C359.569 278.746 360.117 279.463 360.416 280.292C360.715 281.122 360.75 282.024 360.516 282.874C360.282 283.725 359.791 284.482 359.11 285.042C359.375 285.254 359.609 285.503 359.804 285.782C360.238 286.418 360.469 287.171 360.467 287.941C360.438 288.339 360.464 288.738 360.544 289.129C360.712 289.183 360.862 289.28 360.981 289.409C361.1 289.539 361.183 289.697 361.223 289.869ZM358.4 281.818C358.402 281.546 358.35 281.277 358.247 281.025C358.144 280.773 357.992 280.545 357.8 280.352C357.607 280.16 357.379 280.008 357.127 279.905C356.875 279.802 356.606 279.75 356.334 279.752H353.882V283.87H356.334C356.879 283.87 357.402 283.654 357.79 283.27C358.177 282.885 358.396 282.364 358.4 281.818Z" fill="#3A998E"/>
<path d="M364.477 290.424V278.626C364.475 278.481 364.502 278.338 364.556 278.204C364.61 278.071 364.691 277.949 364.793 277.847C364.895 277.745 365.017 277.664 365.15 277.61C365.284 277.556 365.428 277.529 365.572 277.531H367.932C369.73 277.615 371.426 278.389 372.669 279.691C373.912 280.994 374.605 282.725 374.605 284.525C374.605 286.325 373.912 288.056 372.669 289.359C371.426 290.661 369.73 291.435 367.932 291.519H365.572C365.281 291.519 365.003 291.404 364.798 291.199C364.592 290.993 364.477 290.715 364.477 290.424ZM366.698 289.298H367.932C369.151 289.229 370.297 288.696 371.135 287.808C371.974 286.921 372.441 285.746 372.441 284.525C372.441 283.304 371.974 282.129 371.135 281.242C370.297 280.354 369.151 279.821 367.932 279.752H366.698V289.298Z" fill="#3A998E"/>
<path d="M603.713 107.727C603.713 107.727 591.945 201.898 572.605 223.089C549.471 248.505 532.507 244.789 523.253 257.898C513.876 244.773 497.034 248.505 473.9 223.073C454.56 201.883 442.824 107.712 442.824 107.712C493.719 83.0357 523.33 55.2749 523.33 55.2749C524.101 56.154 553.558 83.3904 603.713 107.727Z" fill="#37474F"/>
<path d="M523.191 55.3058V257.898C513.814 244.773 496.973 248.505 473.839 223.073C454.499 201.883 442.762 107.712 442.762 107.712C493.657 83.0357 523.268 55.2749 523.268 55.2749L523.191 55.3058Z" fill="#455A64"/>
<path d="M591.282 115.315C591.282 115.315 581.35 194.865 565.064 212.771C545.431 234.27 531.134 231.109 523.284 242.182C515.372 231.109 501.137 234.27 481.504 212.771C465.187 194.865 455.285 115.315 455.285 115.315C498.315 94.4176 523.299 71.006 523.299 71.006C523.299 71.006 548.176 94.4176 591.282 115.315Z" fill="#455A64"/>
<path d="M455.177 115.315C455.177 115.315 465.11 194.85 481.396 212.771C500.998 234.255 515.218 231.124 523.145 242.167V70.9752C522.436 71.8235 497.544 94.7415 455.177 115.315Z" fill="#37474F"/>
<path d="M545.502 178.901C557.819 166.584 557.819 146.614 545.502 134.297C533.185 121.98 513.215 121.98 500.898 134.297C488.581 146.614 488.581 166.584 500.898 178.901C513.215 191.218 533.185 191.218 545.502 178.901Z" fill="#3A998E"/>
<path d="M519.598 177.083L505.548 162.478L510.761 157.466L518.503 165.516L535.19 139.915L541.251 143.863L519.598 177.083Z" fill="white"/>
<path d="M58.2292 334.132H166.435V311.723H58.2292V334.132Z" fill="#C7C7C7"/>
<path d="M137.394 333.947L140.416 362.587L177.832 630.694H188.52L159.001 362.587L156.61 333.947H137.394Z" fill="#C7C7C7"/>
<path d="M36.113 630.694H46.8164L84.2317 362.587L87.2546 333.947H68.038L65.6474 362.587L36.113 630.694Z" fill="#C7C7C7"/>
<path d="M54.1728 543.109H173.529V536.385H54.1728V543.109Z" fill="#C7C7C7"/>
<path d="M159.001 361.584H140.416L137.394 333.947H156.61L159.001 361.584Z" fill="#A6A6A6"/>
<path d="M65.6472 361.584H84.2315L87.2544 333.947H68.0377L65.6472 361.584Z" fill="#A6A6A6"/>
<path d="M72.6648 204.026C77.2915 206.402 78.0935 214.591 92.4983 214.144C94.5495 214.144 96.2306 213.265 98.1121 213.959C100.873 214.961 103.047 217.167 105.5 218.771C107.472 220.096 109.717 220.961 112.07 221.3C116.583 221.833 121.141 220.781 124.963 218.323C127.323 216.874 129.297 214.869 131.579 213.295C133.862 211.722 147.634 208.391 149.963 200.649C151.505 195.729 151.212 190.131 145.336 182.944C143.983 181.662 143.061 179.991 142.699 178.163C142.703 176.56 143.067 174.979 143.763 173.536C144.571 171.898 144.867 170.054 144.611 168.246C143.956 166.517 142.899 164.968 141.527 163.727C139.368 161.121 139.769 157.357 141.527 152.731C142.224 150.767 142.462 148.67 142.221 146.601C141.98 144.531 141.268 142.545 140.139 140.794C138.723 138.788 137.054 136.973 135.173 135.396C132.536 132.897 132.088 130.584 130.901 127.052C128.664 120.266 125.163 117.228 121.046 115.13C117.329 113.264 117.452 113.974 113.473 114.575C109.442 112.115 104.696 111.093 100.009 111.676C95.6599 112.231 92.0665 115.146 88.7814 117.937C85.8511 120.436 83.1676 123.119 83.0134 127.33C82.9208 129.751 83.5069 132.157 83.3989 134.578C83.2447 137.663 81.5328 139.621 79.4816 141.565C76.423 144.166 74.3131 147.708 73.4822 151.636C72.9424 154.921 76.1811 160.026 72.3871 164.884C69.0558 169.171 63.1335 174.137 61.5913 179.504C56.8874 196.269 68.3001 201.744 72.6648 204.026Z" fill="#263238"/>
<path d="M128.448 213.064C135.065 212.062 145.228 213.311 148.745 205.939C150.136 204.805 151.238 203.356 151.959 201.712C152.681 200.068 153.001 198.277 152.893 196.485C152.439 192.658 150.667 189.108 147.881 186.445C146.265 184.923 144.854 183.196 143.686 181.309C143.313 179.838 143.04 178.344 142.869 176.836C143.141 174.907 143.66 173.02 144.411 171.222C142.961 174.307 141.619 177.638 142.961 181.031C143.158 181.515 143.39 181.984 143.655 182.435C144.137 184.219 144.798 185.95 145.629 187.601C147.804 191.92 149.793 195.822 149.5 200.865C149.449 202.549 149.045 204.205 148.313 205.723C145.451 208.233 141.876 209.786 138.087 210.165C137.995 210.165 137.995 210.334 138.087 210.319C141.513 209.972 144.799 208.78 147.65 206.849C143.809 212.355 134.88 211.599 128.417 212.879C128.248 212.879 128.31 213.08 128.448 213.064ZM149.254 204.69V204.551C150.399 200.464 150.105 196.108 148.421 192.213C147.372 189.637 145.799 187.324 144.766 184.733C144.596 184.285 144.426 183.838 144.272 183.375C145.814 185.396 147.758 187.077 149.207 189.051C152.292 193.339 153.279 198.443 150.333 203.086C150.014 203.647 149.653 204.183 149.254 204.69Z" fill="#263238"/>
<path d="M134.309 134.393C136.778 136.538 139.131 138.814 141.357 141.21C142.911 142.782 143.842 144.864 143.979 147.071C144.037 149.293 143.335 151.469 141.99 153.24C141.496 153.98 140.987 154.782 140.54 155.507C140.434 156.943 140.661 158.383 141.203 159.717C142.283 162.262 144.673 163.835 145.83 166.411C147.619 170.575 145.629 173.999 143.871 177.715C145.151 174.631 146.956 171.654 145.938 168.2C145.136 165.377 143.069 163.85 141.511 161.552C140.563 160.093 140.03 158.403 139.969 156.663C138.581 159.47 138.103 162.432 140.555 165.377C140.663 165.516 140.555 165.701 140.37 165.578C137.286 162.493 138.088 158.622 139.985 155.306C140.101 153.348 140.534 151.421 141.265 149.6C141.265 149.415 141.619 149.6 141.589 149.739C141.311 151.188 140.941 152.638 140.74 154.072L141.064 153.594C143.532 150.063 144.503 145.883 141.666 142.182C139.537 139.359 136.638 137.138 134.263 134.47C134.155 134.439 134.247 134.331 134.309 134.393Z" fill="#263238"/>
<path d="M152.862 425.604C152.862 425.604 125.24 486.955 125.21 487.002C119.873 498.707 115.385 509.056 113.581 514.639C113.569 514.669 113.569 514.702 113.581 514.732C113.011 515.989 112.741 517.362 112.794 518.741C112.794 518.741 112.794 518.819 112.794 518.834C115.2 522.798 207.49 568.186 211.253 568.726C215.016 569.266 216.728 558.578 214.553 553.951C212.379 549.325 184.803 516.135 184.803 516.135L211.885 454.537L152.862 425.604Z" fill="#EB9481"/>
<path d="M130.885 474.355C130.885 474.355 125.241 486.909 125.21 486.955C119.873 498.661 115.385 509.01 113.581 514.593C113.569 514.622 113.569 514.656 113.581 514.685C113.157 515.985 112.893 517.332 112.794 518.695C112.794 518.695 112.794 518.772 112.794 518.788C115.2 522.751 207.49 568.14 211.253 568.68C215.016 569.22 216.728 558.532 214.553 553.905C212.379 549.278 184.803 516.089 184.803 516.089L190.741 503.38L130.885 474.355Z" fill="#EBEBEB"/>
<path d="M211.222 568.603C207.459 568.109 115.139 522.767 112.717 518.803C111.776 517.261 117.591 503.473 125.055 486.955L125.287 486.431L185.188 515.025L184.664 516.027C184.664 516.027 212.255 549.201 214.445 553.828C216.635 558.455 214.97 569.112 211.222 568.603Z" fill="#263238"/>
<path d="M214.26 565.981C215.602 567.431 212.517 572.813 211.176 572.674C209.834 572.536 109.386 522.643 107.844 521.409C106.301 520.176 109.957 514.361 112.1 515.024C114.244 515.688 214.26 565.981 214.26 565.981Z" fill="#3A998E"/>
<path d="M189.646 518.664C184.078 514.515 176.135 511.77 169.303 513.837C169.041 513.837 169.164 514.3 169.396 514.33C176.176 515.314 182.831 517.025 189.245 519.435C189.342 519.459 189.444 519.45 189.536 519.408C189.627 519.367 189.702 519.296 189.748 519.207C189.794 519.118 189.809 519.016 189.791 518.918C189.772 518.819 189.721 518.73 189.646 518.664Z" fill="white"/>
<path d="M192.761 523.507C187.193 519.343 179.251 516.613 172.418 518.68C172.156 518.757 172.28 519.127 172.511 519.173C179.291 520.151 185.946 521.857 192.36 524.263C192.458 524.298 192.565 524.298 192.663 524.26C192.76 524.223 192.841 524.152 192.889 524.059C192.938 523.967 192.952 523.861 192.929 523.759C192.905 523.658 192.845 523.568 192.761 523.507Z" fill="white"/>
<path d="M195.876 528.334C190.309 524.186 182.351 521.44 175.534 523.507C175.272 523.6 175.379 523.97 175.534 524.001C182.32 524.982 188.98 526.693 195.398 529.105C195.5 529.169 195.624 529.189 195.741 529.162C195.858 529.134 195.959 529.061 196.023 528.959C196.086 528.857 196.106 528.733 196.079 528.616C196.051 528.499 195.978 528.398 195.876 528.334Z" fill="white"/>
<path d="M135.527 504.26C130.469 497.628 120.105 505.462 125.21 512.11C130.314 518.757 140.586 510.907 135.527 504.26Z" fill="white"/>
<path d="M169.149 372.272C168.532 390.116 134.139 467.183 134.139 467.183L194.457 494.944C194.457 494.944 243.147 409.24 238.628 369.758C234.772 336.26 150.487 274.307 136.962 256.849C134.957 254.258 135.635 243.832 135.635 243.832H80.9158V256.895C101.813 301.251 164.322 354.459 168.948 370.082C169.131 370.797 169.199 371.536 169.149 372.272Z" fill="#37474F"/>
<path d="M194.118 482.066C184.186 477.301 187.101 478.519 177.153 473.877C172.264 471.61 147.742 460.12 142.807 458.84C142.78 458.827 142.75 458.826 142.722 458.836C142.695 458.847 142.673 458.867 142.66 458.894C142.648 458.92 142.647 458.951 142.657 458.978C142.667 459.006 142.688 459.028 142.714 459.04C146.94 461.909 171.724 472.813 176.644 474.987C186.715 479.429 183.877 478.072 193.995 482.359C194.164 482.452 194.303 482.143 194.118 482.066Z" fill="#263238"/>
<path d="M94.6728 266.226C111.19 291.4 129.656 315.239 149.901 337.525C154.867 342.938 159.972 348.197 165.077 353.472C169.396 357.929 173.806 362.88 174.871 369.219C176.074 376.282 173.328 383.315 171.123 389.9C168.702 397.149 166.265 404.382 163.689 411.585C160.913 419.296 149.562 447.35 147.696 451.128C146.755 453.01 162.718 412.572 165.309 405.107C167.9 397.643 170.521 390.224 172.727 382.667C174.004 378.819 174.528 374.761 174.269 370.715C173.768 366.813 172.211 363.123 169.766 360.042C165.324 354.12 159.556 349.092 154.513 343.694C144.056 332.497 134.088 320.869 124.608 308.808C113.82 295.185 103.751 281.008 94.4414 266.334C94.4343 266.319 94.4303 266.302 94.4296 266.286C94.4288 266.269 94.4314 266.252 94.4371 266.236C94.4429 266.221 94.4516 266.206 94.4629 266.194C94.4743 266.181 94.4879 266.171 94.5031 266.164C94.5183 266.157 94.5347 266.153 94.5515 266.152C94.5682 266.152 94.585 266.154 94.6007 266.16C94.6165 266.166 94.6309 266.175 94.6433 266.186C94.6557 266.197 94.6657 266.211 94.6728 266.226Z" fill="#263238"/>
<path d="M62.2851 559.365C62.2851 559.365 59.6016 626.623 59.5862 626.669C59.8946 639.532 60.3882 650.805 61.1284 656.604C61.1221 656.64 61.1221 656.677 61.1284 656.712C61.1998 658.101 61.5959 659.453 62.2851 660.661V660.738C66.1717 663.236 169.041 663.822 172.634 662.635C176.228 661.447 173.128 651.098 169.164 647.891C165.201 644.683 125.873 626.854 125.873 626.854L127.924 559.642L62.2851 559.365Z" fill="#EB9481"/>
<path d="M60.0798 613.359C60.0798 613.359 59.5555 626.623 59.54 626.669C59.8485 639.532 60.342 650.806 61.0823 656.605C61.076 656.64 61.076 656.677 61.0823 656.713C61.3288 658.071 61.7325 659.396 62.2853 660.661V660.738C66.1718 663.236 169.041 663.822 172.634 662.635C176.228 661.447 173.128 651.099 169.164 647.891C165.201 644.683 125.873 626.854 125.873 626.854L126.289 613.251L60.0798 613.359Z" fill="#EBEBEB"/>
<path d="M172.557 662.511C168.964 663.699 66.1409 663.221 62.1927 660.722C60.6505 659.797 59.8948 644.806 59.4475 626.654V626.083L125.765 625.651V626.777C125.765 626.777 165.062 644.575 169.072 647.783C173.082 650.991 176.166 661.339 172.557 662.511Z" fill="#263238"/>
<path d="M174.146 658.841C175.981 659.566 175.565 665.75 174.223 666.228C172.881 666.706 60.7428 665.704 58.8304 665.272C56.918 664.84 57.6583 657.993 59.8792 657.653C62.1 657.314 174.146 658.841 174.146 658.841Z" fill="#3A998E"/>
<path d="M131.348 627.039C124.531 625.728 116.172 626.746 110.944 631.574C110.743 631.759 110.944 632.052 111.221 631.975C117.74 629.907 124.462 628.542 131.271 627.903C131.385 627.913 131.499 627.878 131.587 627.804C131.676 627.73 131.731 627.624 131.741 627.51C131.751 627.395 131.716 627.281 131.642 627.193C131.568 627.105 131.462 627.05 131.348 627.039Z" fill="white"/>
<path d="M136.314 630.016C129.497 628.705 121.153 629.723 115.91 634.55C115.709 634.735 115.91 635.028 116.203 634.951C122.721 632.881 129.443 631.516 136.252 630.88C136.367 630.888 136.48 630.85 136.567 630.775C136.653 630.7 136.707 630.593 136.715 630.479C136.723 630.364 136.685 630.251 136.61 630.164C136.535 630.077 136.428 630.024 136.314 630.016Z" fill="white"/>
<path d="M141.172 633.008C134.355 631.697 125.996 632.699 120.768 637.542C120.552 637.727 120.768 638.02 121.045 637.943C127.564 635.873 134.285 634.508 141.095 633.871C141.209 633.882 141.323 633.846 141.412 633.772C141.5 633.698 141.555 633.593 141.565 633.478C141.576 633.364 141.54 633.25 141.466 633.162C141.392 633.073 141.287 633.018 141.172 633.008Z" fill="white"/>
<path d="M76.3661 637.696C68.9169 633.933 63.0563 645.5 70.5055 649.263C77.9546 653.026 83.8769 641.475 76.3661 637.696Z" fill="white"/>
<path d="M127.677 605.231L60.4345 605.787C60.4345 605.787 71.6314 331.155 64.136 322.179C46.3074 300.85 49.1451 272.41 61.1594 243.848H122.434C122.434 243.848 119.488 287.216 119.781 288.481C138.627 370.684 127.677 605.231 127.677 605.231Z" fill="#37474F"/>
<path d="M123.976 591.459C109.309 590.318 70.6751 591.567 65.8015 592.307C65.7789 592.319 65.7599 592.337 65.7466 592.358C65.7333 592.38 65.7263 592.405 65.7263 592.431C65.7263 592.456 65.7333 592.481 65.7466 592.503C65.7599 592.525 65.7789 592.542 65.8015 592.554C70.6288 593.526 114.923 592.138 123.96 591.783C123.996 591.774 124.027 591.754 124.05 591.726C124.073 591.698 124.086 591.663 124.088 591.627C124.089 591.59 124.079 591.555 124.059 591.524C124.039 591.494 124.01 591.471 123.976 591.459Z" fill="#263238"/>
<path d="M123.883 260.705C123.266 268.416 123.575 281.71 119.087 281.911C114.599 282.111 115.385 265.918 115.262 262.185C115.139 258.808 113.982 259.27 113.859 263.249C113.519 274.045 113.859 283.592 119.534 283.145C125.21 282.697 125.225 265.964 125.086 262.139C125.009 260.165 124.068 258.252 123.883 260.705Z" fill="#263238"/>
<path d="M119.349 282.42C119.07 285.146 119.127 287.897 119.519 290.609C119.596 290.825 120.46 290.609 120.552 290.471C121.076 289.345 120.66 284.039 120.799 282.605C120.823 282.413 120.771 282.219 120.652 282.065C120.593 281.989 120.52 281.926 120.437 281.878C120.354 281.831 120.262 281.8 120.167 281.788C119.974 281.763 119.78 281.816 119.627 281.934C119.474 282.053 119.374 282.228 119.349 282.42Z" fill="#263238"/>
<path d="M121.277 291.982C123.189 298.768 125.148 311.754 124.685 315.116C124.685 315.424 124.192 315.532 124.13 315.208C123.513 311.569 120.799 294.064 120.521 292.229C120.244 290.393 120.737 290.085 121.277 291.982Z" fill="#263238"/>
<path d="M109.479 297.334C110.374 296.457 111.333 295.647 112.347 294.912C113.35 294.126 114.352 293.37 115.432 292.614C117.56 291.072 119.75 289.746 121.986 288.419C124.223 287.093 126.413 285.936 128.695 284.779C130.978 283.623 133.6 282.667 135.975 281.479C136.114 281.402 136.237 281.602 136.098 281.68C133.846 282.929 131.749 284.486 129.559 285.859C127.369 287.232 125.179 288.651 122.973 290.023C120.768 291.396 118.686 292.738 116.527 294.064C115.406 294.763 114.265 295.442 113.103 296.1C112.063 296.77 110.981 297.373 109.864 297.904C109.494 298.043 109.278 297.565 109.479 297.334Z" fill="#263238"/>
<path d="M70.5671 462.341C71.5387 440.332 73.081 415.749 73.4511 393.771C73.6259 382.76 73.7082 371.743 73.6979 360.721C73.6979 349.786 73.6979 335.181 73.2044 324.262C72.9113 318.709 63.1334 314.422 61.1438 298.259C59.7655 289.054 60.4985 279.656 63.2876 270.776C63.9814 268.617 64.8002 266.501 65.7398 264.437C65.7398 264.298 66.002 264.437 65.9403 264.56C62.0266 273.636 60.4008 283.534 61.2055 293.385C61.4899 298.352 62.53 303.245 64.2901 307.898C66.9119 314.422 73.374 319.712 73.7133 323.182C74.2223 328.349 74.2994 332.821 74.3611 338.019C74.4228 343.216 74.4844 348.814 74.5153 354.212C74.577 365.234 74.5461 376.251 74.4228 387.263C74.176 409.194 73.6002 431.115 72.6954 453.025C71.7701 474.941 66.0945 584.673 65.7244 587.203C65.7244 587.48 65.2308 587.418 65.2463 587.203C65.9249 576.144 69.58 484.349 70.5671 462.341Z" fill="#263238"/>
<path d="M106.887 193.231C121.477 223.336 140 255.939 157.335 261.09C173.837 265.948 205.824 225.433 215.941 214.822C219.55 210.967 190.232 188.912 185.682 192.259C177.107 198.567 161.7 215.748 159.109 215.146C156.518 214.545 134.88 193.971 115.385 176.697C103.572 166.225 96.7856 172.364 106.887 193.231Z" fill="#EB9481"/>
<path d="M241.312 195.714C245.321 194.033 276.198 193.046 276.198 186.352C276.198 179.659 236.885 181.54 236.885 181.54L241.312 195.714Z" fill="#EB9481"/>
<path d="M182.088 196.5C187.486 189.791 192.237 182.62 196.925 181.232C200.179 180.306 235.127 181.818 240.602 181.494C246.077 181.17 265.54 181.664 266.003 186.445C266.635 193.215 243.563 193.153 241.111 196.624C232.613 208.561 200.303 226.235 200.303 226.235L182.088 196.5Z" fill="#EB9481"/>
<path d="M266.512 186.553C266.174 185.283 265.377 184.184 264.276 183.468C261.885 181.802 258.739 181.648 255.932 181.432C251.676 181.034 247.394 180.998 243.131 181.324C243.111 181.324 243.091 181.332 243.077 181.347C243.062 181.361 243.054 181.381 243.054 181.401C243.054 181.422 243.062 181.441 243.077 181.456C243.091 181.47 243.111 181.478 243.131 181.478C246.324 181.478 249.516 181.556 252.709 181.818C255.633 181.94 258.534 182.385 261.361 183.144C262.639 183.484 263.794 184.179 264.692 185.149C265.011 185.488 265.238 185.901 265.354 186.352C265.47 186.802 265.471 187.274 265.355 187.725C264.415 190.67 258.6 191.549 255.917 192.151C252.416 192.938 248.776 193.693 245.244 194.341C245.09 194.341 245.244 194.619 245.321 194.588C248.976 193.863 252.848 193.57 256.518 192.907C259.495 192.367 262.687 191.765 265.093 189.822C265.611 189.464 266.018 188.967 266.269 188.39C266.52 187.812 266.604 187.176 266.512 186.553Z" fill="#263238"/>
<path d="M212.164 171.974L213.181 166.767L273.94 178.632C274.49 178.74 274.975 179.061 275.288 179.526C275.601 179.991 275.716 180.561 275.609 181.111L275.402 182.17C275.294 182.72 274.973 183.205 274.508 183.518C274.043 183.831 273.473 183.947 272.923 183.839L212.164 171.974Z" fill="#3A998E"/>
<path opacity="0.1" d="M213.174 166.777L212.157 171.984L219.483 173.415L220.5 168.208L213.174 166.777Z" fill="black"/>
<path d="M189.939 160.149L188.15 169.403C187.536 172.532 188.191 175.776 189.969 178.423C191.748 181.069 194.505 182.901 197.634 183.514C200.764 184.128 204.008 183.473 206.655 181.695C209.301 179.916 211.133 177.159 211.746 174.029L213.551 164.776C213.854 163.225 213.85 161.63 213.537 160.082C213.225 158.533 212.61 157.061 211.729 155.75C210.847 154.439 209.716 153.314 208.4 152.44C207.084 151.566 205.608 150.96 204.058 150.656C202.508 150.353 200.913 150.357 199.364 150.67C197.815 150.982 196.343 151.597 195.032 152.478C192.384 154.259 190.552 157.018 189.939 160.149ZM209.772 162.447C209.448 163.816 208.708 165.052 207.653 165.982C206.598 166.913 205.28 167.494 203.881 167.644C205.114 168.319 206.111 169.353 206.74 170.61C207.368 171.867 207.598 173.286 207.397 174.677C206.672 178.348 202.631 180.661 198.359 179.828C194.087 178.996 191.203 175.325 191.913 171.67C192.243 170.301 192.988 169.068 194.045 168.138C195.102 167.208 196.42 166.626 197.82 166.472C196.58 165.805 195.578 164.771 194.948 163.513C194.319 162.254 194.094 160.831 194.303 159.44C195.028 155.754 199.069 153.471 203.341 154.304C207.613 155.137 210.497 158.776 209.772 162.447Z" fill="#3A998E"/>
<path d="M213.633 164.421L211.697 174.335C211.594 174.862 211.938 175.372 212.464 175.475L212.949 175.57C213.475 175.673 213.986 175.329 214.089 174.802L216.025 164.888C216.128 164.361 215.784 163.851 215.257 163.748L214.773 163.654C214.246 163.551 213.736 163.894 213.633 164.421Z" fill="#3A998E"/>
<path d="M216.026 164.893L214.09 174.808C213.987 175.335 214.331 175.845 214.857 175.948L215.342 176.042C215.868 176.145 216.379 175.802 216.482 175.275L218.418 165.36C218.521 164.834 218.177 164.323 217.65 164.221L217.166 164.126C216.639 164.023 216.129 164.367 216.026 164.893Z" fill="#3A998E"/>
<path d="M259.387 173.567L261.191 173.921L262.209 168.662L263.767 168.971L263.227 171.716L265.032 172.071L265.571 169.325L266.929 169.588L266.096 173.921L267.9 174.276L268.748 169.942L270.692 170.328L269.566 176.111L271.37 176.466L272.496 170.683L274.331 171.037L272.897 178.425L256.734 175.279L258.168 167.876L260.405 168.323L259.387 173.567Z" fill="#3A998E"/>
<path d="M52.353 253.132L138.442 254.551L131.687 228.764C133.933 225.528 135.444 221.84 136.112 217.958C136.781 214.076 136.592 210.095 135.558 206.294C133.492 198.706 123.698 187.339 117.683 180.075C103.063 162.493 90.3545 170.436 86.2983 174.955C70.8294 192.274 52.353 253.132 52.353 253.132Z" fill="#3A998E"/>
<path d="M94.7498 184.98V180.075L98.004 183.715L101.52 182.62L99.8084 185.704L101.459 187.432L98.8985 187.694V191.025L96.0916 188.681L93.809 190.578L94.0712 187.771L90.7399 186.229L94.7498 184.98ZM131.425 240.085L128.711 242.568L126.212 241.241L127.091 244.095L123.852 245.776L126.937 247.102L126.181 249.57L128.433 248.706L130.654 251.513L130.993 247.842L135.62 246.3L131.116 244.341L131.425 240.085ZM99.9472 221.778L102.585 227.022L105.191 222.009L110.157 222.873L107.52 217.599L111.206 214.082L105.978 214.267L104.929 209.147L102.184 214.452L95.2125 213.913L99.3149 218.154L95.5209 221.069L99.9472 221.778ZM120.475 191.473L121.739 189.344L119.364 189.56L118.547 187.601L117.267 189.73L115.185 189.221L116.434 191.041L114.892 192.583L117.406 192.352L118.794 194.943L119.364 192.537L121.246 193.215L120.475 191.473ZM80.0983 247.642L81.3629 245.529L79.0033 245.729L78.1704 243.771L76.9058 245.915L74.8237 245.39L76.073 247.21L74.5307 248.752L77.0446 248.536L78.4326 251.127L79.0033 248.706L80.9002 249.4L80.0983 247.642ZM94.2563 209.409L95.5209 207.296L93.1458 207.497L92.3284 205.538L91.0638 207.682L88.9663 207.157L90.2155 208.977L88.6733 210.52L91.1872 210.304L92.5752 212.879L93.1458 210.473L95.0428 211.152L94.2563 209.409ZM78.9261 215.146L78.4943 213.758L77.6615 214.884L76.4739 214.468L76.9058 215.871L75.8725 216.581L77.1525 216.75V218.046L78.0316 216.843L79.7127 217.259L78.8799 216.056L79.9286 215.486L78.9261 215.146ZM118.886 248.228L118.454 246.84L117.606 247.966L116.434 247.565L116.866 248.953L115.817 249.678L117.113 249.832V251.127L117.992 249.94L119.673 250.341L118.84 249.138L119.889 248.583L118.886 248.228ZM130.839 207.913L131.934 206.941L130.561 206.648L130.438 205.399L129.343 206.371L128.263 205.723L128.649 206.957L127.492 207.543L128.942 207.851L129.266 209.563L130.021 208.299L130.962 209.024L130.839 207.913ZM109.247 233.962L110.327 232.99L108.954 232.697L108.831 231.448L107.751 232.42L106.656 231.772L107.042 233.006L105.885 233.592L107.335 233.9L107.659 235.612L108.414 234.348L109.355 235.072L109.247 233.962ZM64.799 242.136L65.8786 241.164L64.506 240.856L64.398 239.607L63.303 240.594L62.2851 239.931L62.6552 241.18L61.4985 241.75L62.9483 242.074L63.2876 243.771L64.0279 242.522L64.9686 243.246L64.799 242.136Z" fill="white"/>
<path d="M108.661 227.253C112.342 226.914 116.044 226.852 119.735 227.068C121.57 227.191 123.39 227.407 125.21 227.669C126.104 227.793 127.014 227.885 127.924 227.978C128.877 228.093 129.84 228.093 130.793 227.978C130.793 227.978 130.901 228.086 130.793 228.117C129.913 228.314 129.022 228.458 128.124 228.548C127.246 228.602 126.365 228.602 125.487 228.548C123.636 228.425 121.77 228.225 119.92 228.101C116.172 227.824 112.424 227.561 108.661 227.561C108.553 227.592 108.553 227.268 108.661 227.253Z" fill="#263238"/>
<path d="M100.302 232.08C103.228 231.228 106.199 230.538 109.201 230.014C110.743 229.767 112.286 229.597 113.735 229.474L115.91 229.32C116.712 229.32 117.452 229.32 118.316 229.32C118.408 229.32 118.424 229.443 118.316 229.458C117.56 229.536 116.774 229.736 116.064 229.844L113.812 230.199L109.309 230.908C106.307 231.34 103.304 231.823 100.302 232.358C100.179 232.358 100.148 232.127 100.302 232.08Z" fill="#263238"/>
<path d="M94.6727 173.983C95.0428 175.525 102.384 185.473 109.401 185.134C111.684 185.01 111.622 172.518 111.622 172.518L111.823 171.593L114.722 158.653L99.5462 148.937L97.3562 147.657C97.3562 147.657 96.801 151.25 96.1532 155.723C96.1532 155.939 96.1532 156.139 96.1532 156.355C96.1532 156.571 96.0607 156.849 96.0299 157.095C95.9219 157.758 95.814 158.437 95.7368 159.116C95.6597 159.794 95.598 160.149 95.5363 160.658L95.3513 162.293C94.8632 166.17 94.6365 170.076 94.6727 173.983Z" fill="#EB9481"/>
<path d="M96.2151 155.707C97.5312 159.336 99.6195 162.635 102.335 165.378C105.052 168.121 108.331 170.241 111.946 171.593L114.722 158.653L99.5464 148.937L97.3564 147.657C97.3564 147.657 96.8011 151.235 96.2151 155.707Z" fill="#263238"/>
<path d="M132.967 137.539C137.486 160.365 124.315 165.639 119.395 166.611C114.938 167.49 99.6081 169.896 92.7605 147.672C85.9128 125.448 95.1047 116.133 105.222 113.588C115.339 111.043 128.464 114.729 132.967 137.539Z" fill="#EB9481"/>
<path d="M126.305 134.054C125.796 134.17 125.281 134.257 124.762 134.316C124.221 134.494 123.638 134.494 123.097 134.316C122.94 134.222 122.82 134.078 122.753 133.908C122.686 133.738 122.677 133.551 122.727 133.375C122.88 133.043 123.12 132.757 123.421 132.548C123.722 132.339 124.073 132.215 124.439 132.188C125.167 132.018 125.932 132.128 126.582 132.496C126.716 132.593 126.82 132.726 126.881 132.879C126.943 133.032 126.961 133.199 126.932 133.362C126.903 133.525 126.828 133.676 126.718 133.798C126.607 133.92 126.464 134.009 126.305 134.054Z" fill="#263238"/>
<path d="M110.096 138.727C110.615 138.648 111.13 138.539 111.638 138.403C112.208 138.37 112.751 138.148 113.18 137.771C113.297 137.63 113.36 137.452 113.36 137.269C113.36 137.086 113.297 136.909 113.18 136.768C112.921 136.509 112.595 136.326 112.239 136.239C111.883 136.152 111.509 136.164 111.16 136.275C110.417 136.37 109.739 136.745 109.263 137.323C109.156 137.463 109.093 137.631 109.083 137.806C109.072 137.982 109.115 138.156 109.204 138.307C109.294 138.458 109.427 138.579 109.586 138.653C109.744 138.728 109.922 138.754 110.096 138.727Z" fill="#263238"/>
<path d="M113.519 141.657C113.519 141.657 113.411 141.657 113.427 141.811C113.704 143.354 113.766 145.204 112.44 145.929C112.44 145.929 112.44 146.037 112.44 146.022C114.152 145.513 114.044 143.076 113.519 141.657Z" fill="#263238"/>
<path d="M111.884 140.223C109.34 140.408 109.895 145.497 112.255 145.312C114.614 145.127 114.013 140.069 111.884 140.223Z" fill="#263238"/>
<path d="M110.913 140.609C110.497 140.932 110.126 141.488 109.587 141.611C109.047 141.734 108.461 141.256 108.044 140.794C108.044 140.794 107.952 140.794 108.044 140.794C108.137 141.765 108.615 142.721 109.679 142.752C110.743 142.783 111.221 141.842 111.36 140.84C111.268 140.716 111.083 140.47 110.913 140.609Z" fill="#263238"/>
<path d="M123.189 140.177C123.189 140.177 123.313 140.177 123.313 140.3C123.436 141.842 123.822 143.678 125.302 144.048V144.14C123.529 144.079 123.035 141.688 123.189 140.177Z" fill="#263238"/>
<path d="M124.423 138.388C126.937 137.94 127.647 143.014 125.318 143.415C122.989 143.816 122.31 138.773 124.423 138.388Z" fill="#263238"/>
<path d="M125.518 138.573C125.965 138.789 126.428 139.22 126.906 139.174C127.384 139.128 127.801 138.526 128.078 137.956C128.078 137.956 128.078 137.956 128.171 137.956C128.325 138.912 128.171 139.976 127.245 140.285C126.32 140.593 125.703 139.837 125.318 138.897C125.256 138.773 125.348 138.48 125.518 138.573Z" fill="#263238"/>
<path d="M116.388 154.952C116.789 155.306 117.205 155.784 117.776 155.8C118.365 155.746 118.937 155.573 119.457 155.291C119.457 155.291 119.549 155.291 119.457 155.291C119.252 155.615 118.963 155.878 118.621 156.052C118.279 156.226 117.896 156.304 117.514 156.278C117.219 156.214 116.947 156.071 116.727 155.865C116.507 155.658 116.347 155.396 116.264 155.106C116.264 155.106 116.264 154.905 116.388 154.952Z" fill="#263238"/>
<path d="M122.264 148.474C122.264 148.474 122.881 150.772 123.02 151.882C123.02 151.99 122.773 152.067 122.387 152.145C121.456 152.433 120.463 152.46 119.516 152.224C118.57 151.987 117.707 151.496 117.02 150.803C117.02 150.71 117.02 150.571 117.174 150.633C118.706 151.427 120.454 151.703 122.156 151.42C122.156 151.111 120.968 147.502 121.138 147.472C122.01 147.443 122.881 147.531 123.729 147.734C122.603 142.891 120.645 138.264 119.642 133.421C119.642 133.252 119.858 133.159 119.92 133.314C122.113 138.205 123.808 143.305 124.978 148.536C125.117 149.153 122.742 148.597 122.264 148.474Z" fill="#263238"/>
<path d="M122.233 151.744C121.729 152.725 120.98 153.559 120.058 154.165C119.547 154.483 118.948 154.634 118.346 154.597C117.051 154.489 116.804 153.348 116.804 152.33C116.844 151.806 116.943 151.289 117.097 150.787C118.662 151.651 120.463 151.986 122.233 151.744Z" fill="#263238"/>
<path d="M120.058 154.165C119.547 154.483 118.948 154.634 118.346 154.597C117.051 154.489 116.804 153.348 116.804 152.33C117.475 152.218 118.163 152.339 118.755 152.673C119.347 153.007 119.807 153.534 120.058 154.165Z" fill="#FF9ABB"/>
<path d="M95.305 149.677C99.6696 149.677 99.3766 139.652 99.3766 139.652C99.3766 139.652 117.205 133.961 116.65 118.893C119.81 124.612 125.052 128.892 131.286 130.846C131.286 130.846 128.34 114.652 114.969 113.31C114.969 113.31 98.1119 109.748 90.8941 123.752C83.6763 137.755 92.3747 149.723 95.305 149.677Z" fill="#263238"/>
<path d="M116.558 117.783C117.09 120.045 117.137 122.395 116.696 124.677C116.296 126.998 115.413 129.21 114.105 131.17C113.782 131.66 113.426 132.129 113.041 132.573L112.501 133.267C112.301 133.483 112.085 133.684 111.869 133.884C111.653 134.085 111.036 134.702 110.604 135.087L109.186 136.136C108.954 136.306 108.723 136.475 108.476 136.629L107.72 137.061L106.178 137.91C105.129 138.372 104.05 138.773 102.97 139.159C103.957 138.557 104.975 138.064 105.931 137.462L107.35 136.506L108.044 136.028C108.276 135.858 108.476 135.673 108.692 135.488L109.972 134.409C110.389 134.023 110.759 133.607 111.144 133.206L111.73 132.604L112.239 131.941C112.59 131.514 112.915 131.066 113.211 130.599C114.462 128.715 115.375 126.628 115.91 124.43C116.186 123.341 116.377 122.233 116.48 121.114C116.595 120.008 116.62 118.894 116.558 117.783Z" fill="#263238"/>
<path d="M88.5037 135.966L87.4241 138.156L94.6419 143.431L96.9553 138.511L88.5037 135.966ZM94.1329 141.179L89.1514 137.94L89.3827 137.431L94.9812 139.452L94.1329 141.179Z" fill="#3A998E"/>
<path d="M88.8122 132.095L88.6426 134.532L97.3255 136.707L97.6186 131.262L88.8122 132.095ZM95.9992 134.794L90.154 133.684V133.113L96.1072 132.882L95.9992 134.794Z" fill="#3A998E"/>
<path d="M98.6517 147.718C98.6517 147.718 92.8065 141.04 89.7374 143.199C86.6683 145.359 91.5881 155.414 95.5826 156.417C96.0865 156.585 96.6193 156.648 97.1485 156.604C97.6777 156.559 98.1924 156.408 98.6612 156.158C99.1301 155.908 99.5432 155.566 99.8757 155.152C100.208 154.738 100.453 154.26 100.595 153.749L98.6517 147.718Z" fill="#EB9481"/>
<path d="M91.218 146.053C91.218 146.053 91.218 146.13 91.218 146.145C92.52 146.628 93.7061 147.378 94.6997 148.348C95.6933 149.317 96.4723 150.485 96.9861 151.775C96.8007 151.522 96.5625 151.313 96.2881 151.161C96.0137 151.01 95.7097 150.92 95.3971 150.898C95.0846 150.876 94.771 150.923 94.4781 151.034C94.1852 151.145 93.92 151.319 93.7011 151.543C93.7011 151.543 93.7011 151.697 93.7936 151.682C94.2485 151.478 94.7554 151.421 95.2445 151.517C95.7335 151.614 96.1804 151.86 96.5234 152.222C97.1068 152.834 97.6238 153.506 98.0657 154.227C98.2045 154.458 98.6363 154.227 98.5129 154.011C98.1428 150.479 94.9503 145.991 91.218 146.053Z" fill="#263238"/>
<path d="M81.178 180.091C61.5604 213.928 32.2419 291.596 26.9365 302.701C23.343 310.242 62.7633 330.122 64.4444 324.632C66.5727 317.614 93.9325 227.145 95.7216 186.784C96.5544 168.092 87.455 169.264 81.178 180.091Z" fill="#EB9481"/>
<path d="M48.4047 341.905C50.4868 340.085 51.4893 341.165 50.5485 345.977C49.6077 350.789 41.9889 369.111 48.5898 371.193C55.1907 373.275 65.5547 347.38 66.5109 339.252C67.4671 331.125 65.9866 317.661 65.9866 317.661C62.9483 322.318 54.5738 332.867 48.4047 341.905Z" fill="#EB9481"/>
<path d="M59.9718 370.19L10.6193 361.307C9.077 361.184 8.13622 360.166 8.39841 359.024L12.9172 338.851C13.1645 338.255 13.6037 337.758 14.1652 337.44C14.7267 337.121 15.3785 336.999 16.0172 337.093L65.3697 345.93C66.912 346.069 67.8528 347.087 67.5906 348.213L63.0717 368.386C62.8394 368.996 62.4049 369.508 61.8408 369.836C61.2766 370.165 60.617 370.29 59.9718 370.19Z" fill="#A6A6A6"/>
<path d="M60.5425 367.815L11.0974 358.932C9.55515 358.793 8.62979 357.775 8.87655 356.649L13.4108 336.476C13.6402 335.867 14.0718 335.356 14.6334 335.028C15.1949 334.699 15.8523 334.573 16.4953 334.672L65.9404 343.555C67.4827 343.679 68.408 344.697 68.1613 345.822L63.6733 366.011C63.4375 366.625 62.9977 367.139 62.4277 367.468C61.8577 367.796 61.1921 367.919 60.5425 367.815Z" fill="#C7C7C7"/>
<path d="M59.617 361.415C58.4757 360.983 57.3961 361.415 57.211 362.371C57.1862 362.919 57.3438 363.46 57.6591 363.91C57.9744 364.359 58.4297 364.691 58.9538 364.854C60.0951 365.286 61.1747 364.854 61.3597 363.913C61.388 363.362 61.2321 362.818 60.9165 362.365C60.6009 361.913 60.1437 361.578 59.617 361.415Z" fill="#263238"/>
<path d="M29.5738 299.153C19.5028 312.725 10.5885 328.703 10.3726 346.362C10.3072 348.323 10.8989 350.25 12.0536 351.837C11.8223 359.734 15.4775 362.232 15.4775 362.232C17.5133 369.65 21.6465 371.686 21.6465 371.686C21.6465 371.686 22.2326 378.056 26.7206 377.963C31.2086 377.871 33.6762 367.429 37.5164 359.811C46.5079 342.321 62.8559 322.457 65.9404 317.676L29.5738 299.153Z" fill="#EB9481"/>
<path d="M32.7816 337.34C30.099 342.43 27.7648 347.696 25.7952 353.102C24.0021 359.163 22.6618 365.349 21.7853 371.609C21.7853 371.65 21.769 371.689 21.7401 371.718C21.7112 371.747 21.6719 371.763 21.631 371.763C21.5901 371.763 21.5509 371.747 21.522 371.718C21.4931 371.689 21.4768 371.65 21.4768 371.609C21.9678 359.379 25.7973 347.517 32.5503 337.309C32.7045 336.985 32.9821 337.093 32.7816 337.34Z" fill="#263238"/>
<path d="M23.019 330.384C20.829 335.582 17.035 344.727 15.6624 362.248C15.6624 362.248 15.5699 362.248 15.5544 362.248C14.9544 351.128 17.4531 340.06 22.7722 330.276C22.9419 329.968 23.1732 330.03 23.019 330.384Z" fill="#263238"/>
<path d="M17.7137 326.745C14.3208 335.721 13.3029 341.813 12.0999 351.791H11.9919C12.177 340.301 13.5342 336.137 17.4207 326.575C17.5595 326.297 17.8371 326.39 17.7137 326.745Z" fill="#263238"/>
</svg>
