<svg xmlns="http://www.w3.org/2000/svg" width="30" height="30" fill="none" viewBox="0 0 30 30">
  <path fill="#4285F4" d="M29.363 15.338c0-.988-.088-1.925-.238-2.838H15v5.637h8.087c-.362 1.85-1.424 3.413-3 4.476v3.75h4.826c2.825-2.613 4.45-6.463 4.45-11.025Z"/>
  <path fill="#34A853" d="M15 30c4.05 0 7.438-1.35 9.913-3.637l-4.825-3.75c-1.35.9-3.063 1.45-5.088 1.45-3.912 0-7.225-2.638-8.412-6.2H1.613v3.862C4.075 26.625 9.138 30 15 30Z"/>
  <path fill="#FBBC05" d="M6.588 17.863A8.704 8.704 0 0 1 6.112 15c0-1 .175-1.963.476-2.863V8.275H1.612a14.826 14.826 0 0 0 0 13.45l4.976-3.863Z"/>
  <path fill="#EA4335" d="M15 5.938c2.213 0 4.188.762 5.75 2.25l4.275-4.276C22.438 1.487 19.05 0 15 0 9.138 0 4.075 3.375 1.613 8.275l4.975 3.862c1.187-3.562 4.5-6.2 8.412-6.2Z"/>
</svg>
