<svg width="32" height="32" viewBox="0 0 32 32" fill="none" xmlns="http://www.w3.org/2000/svg">
<path d="M11.4288 12.638C11.1021 12.772 11.5154 13.006 11.7441 13.0073C11.8482 13.0212 11.954 13.0095 12.0525 12.9733C12.1511 12.937 12.2393 12.8773 12.3095 12.7993C12.3798 12.7213 12.4299 12.6274 12.4557 12.5256C12.4815 12.4239 12.4821 12.3174 12.4574 12.2153C12.2528 11.6387 11.2861 11.4067 10.5328 11.5887C9.44678 11.852 9.02811 12.7487 9.44078 13.4547C9.98211 14.3827 11.6068 14.732 12.8841 14.342C14.4734 13.8573 15.0614 12.5007 14.3508 11.4373C13.4974 10.162 11.2108 9.69599 9.42478 10.292C7.33811 10.9887 6.58145 12.8033 7.58811 14.216C8.74278 15.8347 11.6881 16.4173 13.9728 15.6167C16.5528 14.7133 17.4761 12.4433 16.1754 10.688C14.7254 8.72866 11.1281 8.03066 8.35011 9.03332C5.28211 10.1407 4.19345 12.8607 5.78345 14.9573C7.52545 17.2533 11.7701 18.0653 15.0368 16.8627C18.5881 15.554 19.8414 12.3867 17.9634 9.95332C15.9321 7.32266 11.0448 6.39599 7.29478 7.79866C3.26145 9.30666 1.84478 12.9187 4.00945 15.686C5.38611 17.4467 8.00545 18.628 10.8734 18.8247" stroke="black" stroke-linecap="round" stroke-linejoin="round"/>
<path d="M18.8274 18.7493V12.194M10.8734 18.8246H29.0001V24.8533H10.8268C6.41475 24.8533 3.00342 21.9133 3.00342 18.0713V12.7966L10.8734 18.8246ZM6.39408 23.572V22.0653V23.572ZM8.65475 24.4766V21.462V24.4766ZM10.9154 24.8533V23.3466V24.8533ZM13.1761 24.8533V21.8386V24.8533ZM15.4361 24.8533V23.3466V24.8533ZM17.6974 24.8533V21.8386V24.8533ZM19.9574 24.8533V23.3466V24.8533ZM24.4788 24.8533V23.3466V24.8533ZM22.2188 24.8533V21.8386V24.8533ZM26.7394 24.8533V21.8386V24.8533Z" stroke="black" stroke-linecap="round" stroke-linejoin="round"/>
</svg>
