<svg width="24" height="24" viewBox="0 0 24 24" fill="none" xmlns="http://www.w3.org/2000/svg">
<path d="M17.6136 15.5148C19.066 13.5326 19.7165 11.0751 19.435 8.63384C19.1535 6.19257 17.9607 3.94764 16.0953 2.34816C14.2299 0.748681 11.8294 -0.0873817 9.37416 0.00723783C6.91888 0.101857 4.58986 1.12018 2.85305 2.85848C1.11624 4.59678 0.0997272 6.92685 0.00687799 9.38254C-0.0859713 11.8382 0.751691 14.2384 2.35228 16.103C3.95287 17.9675 6.19834 19.1588 8.63946 19.4386C11.0806 19.7184 13.5373 19.066 15.5182 17.612H15.5167C15.5617 17.672 15.6097 17.7291 15.6637 17.7846L21.4384 23.5602C21.7197 23.8416 22.1012 23.9999 22.4991 24C22.897 24.0001 23.2787 23.8422 23.5601 23.5609C23.8416 23.2796 23.9998 22.898 23.9999 22.5001C24 22.1021 23.8421 21.7204 23.5609 21.4389L17.7861 15.6633C17.7325 15.609 17.6748 15.5589 17.6136 15.5133V15.5148ZM18.0006 9.74823C18.0006 10.8317 17.7872 11.9047 17.3726 12.9057C16.958 13.9067 16.3504 14.8163 15.5843 15.5825C14.8182 16.3486 13.9088 16.9564 12.9079 17.371C11.907 17.7857 10.8343 17.9991 9.75089 17.9991C8.66752 17.9991 7.59477 17.7857 6.59387 17.371C5.59297 16.9564 4.68353 16.3486 3.91748 15.5825C3.15142 14.8163 2.54376 13.9067 2.12917 12.9057C1.71458 11.9047 1.5012 10.8317 1.5012 9.74823C1.5012 7.55997 2.37036 5.46133 3.91748 3.914C5.46459 2.36666 7.56294 1.49738 9.75089 1.49738C11.9388 1.49738 14.0372 2.36666 15.5843 3.914C17.1314 5.46133 18.0006 7.55997 18.0006 9.74823Z" fill="white"/>
</svg>
